<svg width="288" height="356" viewBox="0 0 288 356" fill="none" xmlns="http://www.w3.org/2000/svg">
<g clip-path="url(#clip0)">
<path d="M203.465 46.4906H256.679C256.679 46.4906 251.977 37.9301 238.275 39.1761C225.196 40.3655 224.524 34.9606 217.88 34.2972C211.227 33.6337 205.683 38.7311 203.465 46.4906Z" fill="#E0E0E0"/>
<path d="M64.3741 187.131C64.3741 187.131 59.0406 190.012 66.8021 201.145C74.5636 212.279 79.6138 217.619 79.6138 217.619C79.6138 217.619 81.0787 220.248 78.7964 221.001C76.5141 221.753 71.2453 221.64 70.5979 224.65C69.9261 227.765 72.4674 230.273 77.1858 232.126C81.8961 233.979 92.0775 238.421 92.992 238.826C93.8904 239.222 94.902 240.404 93.4372 241.164C91.9642 241.925 80.5445 244.732 82.1956 250.073C83.8547 255.413 97.8318 258.423 99.3534 258.779C100.875 259.135 101.304 259.701 101.296 260.51C101.288 261.319 97.3543 261.902 94.1413 262.832C90.9282 263.763 87.3591 265.405 88.5731 268.407C89.7871 271.409 98.5764 276.854 117.976 276.094L126.943 275.155L130.763 266.943C137.869 248.875 135.611 238.785 133.175 236.649C130.739 234.513 128.012 237.345 126.077 240.072C124.143 242.799 122.298 246.318 121.529 246.059C120.76 245.8 120.372 245.21 120.534 243.656C120.695 242.103 122.452 227.911 117.952 224.593C113.452 221.276 107.042 231.139 105.836 232.272C104.63 233.413 103.853 232.07 103.772 231.083C103.691 230.079 102.842 219.011 102.639 213.954C102.437 208.897 100.907 205.668 97.7428 205.28C94.6916 204.9 93.0649 209.908 91.6 211.817C90.1351 213.719 88.136 211.47 88.136 211.47C88.136 211.47 84.7449 204.94 76.7892 193.952C68.8254 182.964 64.2608 187.172 64.2608 187.172" fill="#EBEBEB"/>
<path d="M127.704 277.202C121.885 269.111 111.793 254.555 103.06 242.095C94.3274 229.642 86.4203 218.379 80.6417 210.256C77.7524 206.202 75.4134 202.925 73.7947 200.644C72.9935 199.519 72.3703 198.637 71.9333 198.03C71.7309 197.739 71.5691 197.512 71.4558 197.342C71.3506 197.189 71.302 197.1 71.302 197.1C71.302 197.1 71.3667 197.172 71.4801 197.318C71.6015 197.48 71.7633 197.698 71.9818 197.99C72.427 198.588 73.0663 199.462 73.8838 200.571C75.5348 202.82 77.898 206.081 80.8035 210.134C86.6226 218.226 94.5622 229.472 103.287 241.925C112.019 254.377 122.087 268.949 127.858 277.073" fill="#E0E0E0"/>
<path d="M77.9709 225.112C77.9789 225.095 78.2056 225.128 78.6183 225.201C79.0311 225.273 79.6219 225.395 80.3584 225.557C81.8233 225.872 83.8304 226.366 86.0399 226.948C88.217 227.531 90.1836 228.057 91.689 228.461C92.3688 228.639 92.9434 228.785 93.4048 228.906C93.8094 229.011 94.036 229.076 94.0279 229.092C94.0279 229.109 93.7932 229.084 93.3805 229.011C92.9677 228.939 92.3769 228.817 91.6404 228.647C90.1755 228.316 88.1765 227.798 85.967 227.215C83.7899 226.649 81.8152 226.139 80.3098 225.743C79.63 225.565 79.0554 225.419 78.594 225.306C78.1894 225.192 77.9628 225.128 77.9709 225.112Z" fill="#E0E0E0"/>
<path d="M94.5541 228.436C94.4812 228.42 95.3148 224.229 96.4155 219.083C97.5162 213.929 98.4712 209.77 98.5521 209.786C98.625 209.802 97.7995 213.994 96.6907 219.14C95.59 224.294 94.635 228.453 94.5541 228.436Z" fill="#E0E0E0"/>
<path d="M107.099 248.163C107.082 248.155 107.188 247.936 107.382 247.564C107.608 247.135 107.9 246.601 108.24 245.97C108.96 244.627 109.956 242.766 110.967 240.67C111.987 238.575 112.845 236.649 113.46 235.249C113.751 234.594 113.994 234.036 114.188 233.591C114.358 233.202 114.464 232.984 114.488 232.992C114.504 233 114.439 233.227 114.294 233.631C114.148 234.036 113.937 234.618 113.646 235.322C113.08 236.746 112.246 238.688 111.226 240.792C110.206 242.895 109.187 244.748 108.418 246.067C108.029 246.731 107.714 247.257 107.479 247.621C107.252 247.977 107.123 248.179 107.099 248.163Z" fill="#E0E0E0"/>
<path d="M91.43 248.454C91.43 248.438 91.6485 248.414 92.0451 248.382C92.4983 248.357 93.0567 248.325 93.7123 248.284C95.1205 248.212 97.071 248.139 99.2238 248.074C101.377 248.009 103.327 247.961 104.743 247.945C105.399 247.945 105.966 247.937 106.419 247.937C106.815 247.945 107.034 247.953 107.034 247.969C107.034 247.985 106.815 248.017 106.419 248.042C105.966 248.066 105.407 248.098 104.752 248.139C103.343 248.212 101.393 248.284 99.2319 248.349C97.0791 248.414 95.1286 248.462 93.7123 248.479C93.0567 248.479 92.4902 248.487 92.037 248.487C91.6566 248.487 91.43 248.471 91.43 248.454Z" fill="#E0E0E0"/>
<path d="M100.292 267.274C100.292 267.258 100.567 267.226 101.077 267.185C101.636 267.153 102.356 267.104 103.214 267.056C105.019 266.959 107.519 266.837 110.279 266.724C113.039 266.611 115.54 266.522 117.353 266.473C118.219 266.457 118.939 266.441 119.498 266.433C120.007 266.433 120.283 266.433 120.283 266.457C120.283 266.473 120.007 266.505 119.498 266.546C118.939 266.578 118.219 266.627 117.361 266.675C115.556 266.772 113.055 266.894 110.295 267.007C107.536 267.12 105.035 267.209 103.23 267.258C102.364 267.274 101.644 267.29 101.085 267.298C100.575 267.298 100.292 267.298 100.292 267.274Z" fill="#E0E0E0"/>
<path d="M119.805 266.344C119.789 266.336 119.91 266.06 120.145 265.575C120.404 265.041 120.752 264.353 121.157 263.52C122.015 261.78 123.188 259.377 124.402 256.683C125.624 253.988 126.668 251.529 127.413 249.732C127.769 248.875 128.068 248.163 128.295 247.613C128.505 247.111 128.627 246.836 128.651 246.844C128.667 246.852 128.578 247.135 128.4 247.653C128.222 248.163 127.947 248.899 127.599 249.805C126.903 251.618 125.883 254.102 124.661 256.796C123.439 259.49 122.241 261.893 121.335 263.609C120.882 264.466 120.509 265.154 120.242 265.632C119.975 266.101 119.821 266.352 119.805 266.344Z" fill="#E0E0E0"/>
<path d="M195.065 146.934C185.426 136.133 186.356 120.549 189.998 107.198C190.605 104.973 190.921 102.546 192.459 100.823C193.996 99.1073 196.805 98.3467 198.593 99.7708C200.074 100.952 200.341 103.064 200.9 104.892C201.636 107.32 203.069 109.529 204.979 111.171C206.233 112.255 207.893 113.121 209.495 112.684C211.688 112.077 212.546 109.448 213.064 107.215C214.027 103.048 214.982 98.8727 215.945 94.7057C216.463 92.4725 216.998 90.1827 218.195 88.2328C219.393 86.2747 221.392 84.6727 223.658 84.5756C225.924 84.4866 228.263 86.3314 228.191 88.6212C228.158 89.5759 227.753 90.474 227.592 91.4207C227.438 92.3593 227.624 93.492 228.441 93.9613C229.275 94.4306 230.319 94.0099 231.136 93.5163C233.977 91.8091 236.227 89.2684 238.38 86.7278C240.525 84.1872 242.645 81.5656 245.324 79.5995C248.003 77.6333 251.354 76.3711 254.599 76.9456C257.844 77.5201 260.782 80.3034 260.847 83.637C260.912 86.9786 258.314 89.7377 255.716 91.8172C251.855 94.8999 247.55 97.4082 242.985 99.2529C242.16 99.5847 241.269 99.9488 240.808 100.709C239.966 102.085 241.035 103.897 242.386 104.739C243.924 105.685 245.769 105.944 247.461 106.559C249.152 107.174 250.86 108.396 251.127 110.192C251.499 112.692 249.023 114.634 246.773 115.759C242.265 118.008 237.376 119.473 232.399 120.063C230.61 120.274 228.757 120.395 227.163 121.237C225.56 122.078 224.29 123.899 224.719 125.663C225.147 127.426 227.082 128.422 228.878 128.503C230.675 128.592 232.44 128.025 234.228 127.791C237.571 127.362 241.488 128.511 242.831 131.626C243.713 133.673 243.252 136.133 242.103 138.058C240.954 139.984 239.206 141.456 237.409 142.775C231.12 147.379 223.715 150.535 216.01 151.32C208.289 152.096 201.531 151.198 195.065 146.934Z" fill="#F5F5F5"/>
<path d="M197.015 148.237C198.763 143.018 196.934 145.64 200.536 139.329C204.129 133.009 208.637 126.407 213.59 119.659C214.837 117.976 216.067 116.317 217.281 114.675C218.495 113.04 219.701 111.422 220.971 109.917C223.513 106.883 226.183 104.164 228.798 101.656C231.412 99.1478 233.985 96.8661 236.405 94.7462C238.833 92.6344 241.132 90.7087 243.301 89.0419C247.631 85.6922 251.443 83.4105 254.121 81.946C255.457 81.2097 256.517 80.6756 257.237 80.3196C257.585 80.1497 257.852 80.0203 258.063 79.9232C258.249 79.8342 258.346 79.7937 258.346 79.8018C258.346 79.8099 258.257 79.8665 258.079 79.9636C257.877 80.0688 257.61 80.2144 257.278 80.4005C256.574 80.7808 255.53 81.3391 254.202 82.0916C251.556 83.5966 247.784 85.9106 243.487 89.2765C241.334 90.9514 239.052 92.8852 236.64 95.0132C234.228 97.1412 231.671 99.431 229.065 101.939C226.467 104.447 223.812 107.166 221.287 110.184C220.024 111.689 218.827 113.291 217.613 114.926C216.399 116.56 215.176 118.227 213.93 119.902C208.977 126.642 204.469 133.22 200.876 139.515C197.266 145.801 199.079 143.139 197.298 148.326" fill="#E0E0E0"/>
<path d="M221.093 109.925C221.06 109.925 221.068 109.569 221.101 108.922C221.133 108.274 221.206 107.344 221.311 106.195C221.522 103.897 221.918 100.733 222.38 97.246C222.833 93.7587 223.189 90.595 223.367 88.2971C223.456 87.1482 223.521 86.2177 223.561 85.5785C223.602 84.9312 223.634 84.5752 223.666 84.5752C223.699 84.5752 223.715 84.9312 223.723 85.5785C223.739 86.2258 223.715 87.1563 223.666 88.3133C223.569 90.6193 223.262 93.7991 222.8 97.2945C222.347 100.733 221.926 103.848 221.611 106.227C221.473 107.303 221.36 108.209 221.271 108.938C221.182 109.577 221.125 109.925 221.093 109.925Z" fill="#E0E0E0"/>
<path d="M251.095 111.357C251.086 111.39 250.666 111.333 249.913 111.22C249.16 111.115 248.076 110.945 246.724 110.791C244.029 110.451 240.282 110.111 236.13 109.925C231.978 109.739 228.223 109.731 225.495 109.804C224.136 109.828 223.035 109.885 222.274 109.909C221.514 109.941 221.093 109.949 221.085 109.917C221.085 109.885 221.497 109.828 222.258 109.739C223.019 109.658 224.12 109.561 225.479 109.496C228.207 109.343 231.978 109.302 236.138 109.488C240.298 109.682 244.053 110.071 246.748 110.484C248.1 110.678 249.185 110.888 249.929 111.05C250.69 111.228 251.103 111.333 251.095 111.357Z" fill="#E0E0E0"/>
<path d="M201.021 138.875C201.005 138.875 200.965 138.746 200.908 138.479C200.843 138.163 200.762 137.783 200.665 137.322C200.455 136.318 200.196 134.854 199.888 133.05C199.281 129.433 198.601 124.408 197.922 118.85C197.242 113.291 196.61 108.266 196.084 104.642C195.825 102.878 195.607 101.429 195.445 100.345C195.38 99.8759 195.324 99.4956 195.275 99.1719C195.243 98.9049 195.227 98.7593 195.243 98.7593C195.259 98.7593 195.299 98.8968 195.356 99.1557C195.421 99.4713 195.502 99.8516 195.599 100.313C195.809 101.316 196.068 102.781 196.376 104.585C196.983 108.202 197.663 113.226 198.342 118.785C199.022 124.344 199.654 129.36 200.18 132.993C200.447 134.757 200.657 136.205 200.819 137.289C200.884 137.759 200.94 138.147 200.989 138.463C201.021 138.738 201.029 138.875 201.021 138.875Z" fill="#E0E0E0"/>
<path d="M242.111 135.615C242.111 135.631 241.965 135.655 241.698 135.68C241.375 135.712 240.978 135.744 240.5 135.785C239.4 135.874 237.911 135.995 236.098 136.141C232.383 136.44 227.252 136.917 221.586 137.452C215.921 137.986 210.782 138.414 207.059 138.641C205.197 138.754 203.692 138.827 202.648 138.859C202.171 138.867 201.766 138.884 201.45 138.892C201.175 138.892 201.029 138.884 201.029 138.876C201.029 138.859 201.175 138.835 201.442 138.811C201.766 138.778 202.162 138.746 202.64 138.706C203.741 138.617 205.23 138.495 207.043 138.35C210.758 138.05 215.889 137.573 221.554 137.039C227.219 136.505 232.359 136.076 236.081 135.849C237.943 135.736 239.448 135.663 240.492 135.631C240.978 135.623 241.366 135.607 241.69 135.599C241.965 135.599 242.111 135.607 242.111 135.615Z" fill="#E0E0E0"/>
<path d="M273.982 217.967C273.991 217.967 273.942 218.097 273.845 218.347C273.732 218.614 273.586 218.97 273.4 219.424C272.987 220.395 272.404 221.762 271.676 223.493C270.154 227.013 268.01 231.981 265.436 237.92L265.395 238.009L265.298 238.025C259.544 238.972 252.835 240.08 245.696 241.262C243.463 241.626 241.261 241.99 239.125 242.338L238.825 242.386L238.898 242.095C240.492 235.792 241.965 229.991 243.22 225.063L243.309 225.249C238.526 223.113 234.576 221.349 231.792 220.103C230.441 219.488 229.372 219.003 228.611 218.655C228.263 218.493 227.996 218.364 227.786 218.267C227.6 218.178 227.503 218.129 227.511 218.121C227.519 218.113 227.616 218.145 227.81 218.226C228.029 218.315 228.304 218.428 228.66 218.574C229.429 218.898 230.505 219.359 231.873 219.941C234.673 221.155 238.639 222.879 243.446 224.958L243.576 225.015L243.544 225.152C242.313 230.088 240.865 235.897 239.295 242.208L239.068 241.966C241.205 241.618 243.398 241.254 245.64 240.889C252.778 239.732 259.495 238.64 265.25 237.702L265.12 237.807C267.743 231.892 269.936 226.948 271.49 223.437C272.259 221.721 272.874 220.37 273.311 219.407C273.513 218.962 273.683 218.614 273.804 218.347C273.91 218.08 273.974 217.959 273.982 217.967Z" fill="#E0E0E0"/>
<path d="M241.431 240.007L240.897 241.423L241.755 242.661L240.25 242.588L239.335 243.786L238.938 242.329L237.514 241.836L238.777 241.011L238.809 239.498L239.991 240.444L241.431 240.007Z" fill="#E0E0E0"/>
<path d="M227.972 217.15L227.705 217.854L228.134 218.469L227.389 218.436L226.928 219.027L226.734 218.307L226.03 218.056L226.653 217.643L226.669 216.899L227.26 217.368L227.972 217.15Z" fill="#E0E0E0"/>
<path d="M265.986 237.029L265.719 237.733L266.148 238.348L265.404 238.308L264.942 238.907L264.748 238.186L264.044 237.936L264.667 237.523L264.683 236.771L265.274 237.24L265.986 237.029Z" fill="#E0E0E0"/>
<path d="M244.053 224.407L243.786 225.111L244.215 225.726L243.463 225.694L243.009 226.284L242.815 225.564L242.103 225.313L242.734 224.901L242.75 224.156L243.333 224.626L244.053 224.407Z" fill="#E0E0E0"/>
<path d="M274.897 217.263L274.63 217.967L275.059 218.582L274.306 218.541L273.853 219.14L273.651 218.42L272.947 218.169L273.578 217.756L273.594 217.004L274.177 217.473L274.897 217.263Z" fill="#E0E0E0"/>
<path d="M29.5891 276.142H71.9575C71.9575 276.142 68.2103 269.33 57.3086 270.317C46.8926 271.263 46.3665 266.967 41.0654 266.433C35.7724 265.907 31.3534 269.969 29.5891 276.142Z" fill="#E0E0E0"/>
<path d="M38.0061 109.375H80.3745C80.3745 109.375 76.6273 102.562 65.7257 103.549C55.3096 104.496 54.7835 100.2 49.4824 99.6657C44.1813 99.1317 39.7704 103.193 38.0061 109.375Z" fill="#F5F5F5"/>
<path d="M253.191 138.827H288C288 138.827 284.924 133.228 275.957 134.045C267.403 134.822 266.965 131.286 262.611 130.857C258.265 130.42 254.639 133.754 253.191 138.827Z" fill="#F5F5F5"/>
<path d="M183.677 207.521C185.409 194.478 176.232 183.716 164.771 177.252C153.311 170.787 140.014 168.618 127.356 165.026C115.419 161.636 103.546 156.684 94.6997 147.978C85.8537 139.272 80.5526 126.188 83.7333 114.189C84.5345 111.179 85.9589 108.153 88.5407 106.413C91.1305 104.674 95.0801 104.722 97.0063 107.166C101.118 112.377 93.1053 121.706 98.1231 126.051C99.2724 127.046 100.859 127.418 102.048 128.365C105.221 130.889 104.193 135.809 104.638 139.838C105.52 147.808 112.999 153.342 120.339 156.571C130.173 160.891 140.823 162.93 151.256 165.495C161.688 168.06 172.201 171.288 180.893 177.6C189.585 183.911 197.12 193.79 197.064 204.527C197.048 207.529 196.667 211.218 194.781 213.557C192.896 215.895 190.5 216.38 187.781 215.102C185.061 213.824 183.176 211.849 183.677 207.521Z" fill="#EC6F2D"/>
<g opacity="0.8">
<path opacity="0.8" d="M183.677 207.521C185.409 194.478 176.232 183.716 164.771 177.252C153.311 170.787 140.014 168.618 127.356 165.026C115.419 161.636 103.546 156.684 94.6997 147.978C85.8537 139.272 80.5526 126.188 83.7333 114.189C84.5345 111.179 85.9589 108.153 88.5407 106.413C91.1305 104.674 95.0801 104.722 97.0063 107.166C101.118 112.377 93.1053 121.706 98.1231 126.051C99.2724 127.046 100.859 127.418 102.048 128.365C105.221 130.889 104.193 135.809 104.638 139.838C105.52 147.808 112.999 153.342 120.339 156.571C130.173 160.891 140.823 162.93 151.256 165.495C161.688 168.06 172.201 171.288 180.893 177.6C189.585 183.911 197.12 193.79 197.064 204.527C197.048 207.529 196.667 211.218 194.781 213.557C192.896 215.895 190.5 216.38 187.781 215.102C185.061 213.824 183.176 211.849 183.677 207.521Z" fill="white"/>
</g>
<path d="M128.238 103.857C127.826 99.0263 131.427 94.8189 135.522 92.5614C139.617 90.304 144.304 89.3897 148.528 87.3912C159.009 82.4232 165.67 70.7395 166.164 58.7484C166.657 46.7573 161.461 34.7824 153.328 25.9711C150.025 22.3948 145.955 18.6486 145.906 13.7615C145.857 8.66411 150.794 4.65089 155.731 4.71562C160.668 4.78035 165.217 8.08154 168.171 12.2404C171.125 16.3993 172.76 21.3511 174.354 26.2058C173.221 24.1749 175.552 21.6585 177.794 21.8689C180.035 22.0874 181.808 23.9564 183.192 25.8174C189.14 33.8195 192.078 44.1034 191.261 54.007C190.443 63.9106 185.863 73.3368 178.716 79.8583C170.728 87.1322 160.166 90.5467 149.928 93.7751C142.798 96.0244 135.676 98.2738 128.546 100.523" fill="#EC6F2D"/>
<g opacity="0.8">
<path opacity="0.8" d="M128.238 103.857C127.826 99.0263 131.427 94.8189 135.522 92.5614C139.617 90.304 144.304 89.3897 148.528 87.3912C159.009 82.4232 165.67 70.7395 166.164 58.7484C166.657 46.7573 161.461 34.7824 153.328 25.9711C150.025 22.3948 145.955 18.6486 145.906 13.7615C145.857 8.66411 150.794 4.65089 155.731 4.71562C160.668 4.78035 165.217 8.08154 168.171 12.2404C171.125 16.3993 172.76 21.3511 174.354 26.2058C173.221 24.1749 175.552 21.6585 177.794 21.8689C180.035 22.0874 181.808 23.9564 183.192 25.8174C189.14 33.8195 192.078 44.1034 191.261 54.007C190.443 63.9106 185.863 73.3368 178.716 79.8583C170.728 87.1322 160.166 90.5467 149.928 93.7751C142.798 96.0244 135.676 98.2738 128.546 100.523" fill="white"/>
</g>
<path d="M122.29 2.3529C120.169 3.24293 119.004 5.93729 119.805 8.09763C120.606 10.258 123.245 11.5364 125.438 10.8324C127.631 10.1285 129.023 7.54743 128.416 5.32236C127.809 3.09729 125.292 1.60042 123.042 2.11017" fill="#EC6F2D"/>
<g opacity="0.8">
<path opacity="0.8" d="M122.29 2.3529C120.169 3.24293 119.004 5.93729 119.805 8.09763C120.606 10.258 123.245 11.5364 125.438 10.8324C127.631 10.1285 129.023 7.54743 128.416 5.32236C127.809 3.09729 125.292 1.60042 123.042 2.11017" fill="white"/>
</g>
<path d="M148.65 314.114C146.027 308.685 148.31 301.912 152.486 297.559C156.662 293.206 162.36 290.722 167.887 288.295C180.068 282.93 192.969 276.538 199.168 264.758C201.256 260.785 202.446 256.416 203.619 252.079C205.894 243.696 208.022 234.173 203.449 226.786C202.13 224.658 200.155 222.773 197.695 222.336C194.895 221.842 192.014 223.379 190.282 225.645C188.558 227.902 187.813 230.775 187.457 233.59C186.777 238.963 187.344 244.425 186.777 249.805C186.211 255.186 184.244 260.817 179.801 263.916C174.411 267.679 166.714 266.829 161.469 270.802C157.237 274.006 155.626 279.573 152.324 283.723C149.54 287.211 145.655 289.597 142.086 292.276C138.525 294.962 135.077 298.231 133.863 302.527C132.609 306.985 134.179 312.115 137.724 315.101C141.269 318.086 146.586 318.774 150.77 316.784" fill="#EC6F2D"/>
<g opacity="0.8">
<path opacity="0.8" d="M148.65 314.114C146.027 308.685 148.31 301.912 152.486 297.559C156.662 293.206 162.36 290.722 167.887 288.295C180.068 282.93 192.969 276.538 199.168 264.758C201.256 260.785 202.446 256.416 203.619 252.079C205.894 243.696 208.022 234.173 203.449 226.786C202.13 224.658 200.155 222.773 197.695 222.336C194.895 221.842 192.014 223.379 190.282 225.645C188.558 227.902 187.813 230.775 187.457 233.59C186.777 238.963 187.344 244.425 186.777 249.805C186.211 255.186 184.244 260.817 179.801 263.916C174.411 267.679 166.714 266.829 161.469 270.802C157.237 274.006 155.626 279.573 152.324 283.723C149.54 287.211 145.655 289.597 142.086 292.276C138.525 294.962 135.077 298.231 133.863 302.527C132.609 306.985 134.179 312.115 137.724 315.101C141.269 318.086 146.586 318.774 150.77 316.784" fill="white"/>
</g>
<path d="M67.6114 39.8393C63.322 36.6595 60.6997 31.3355 60.7969 25.9953C60.894 20.6552 63.7023 15.4363 68.097 12.4022C70.5816 10.6949 73.5357 9.64307 75.7452 7.58791C77.7118 5.75931 78.9906 3.22678 81.192 1.68945C83.9275 -0.220063 87.8932 -0.139151 90.5478 1.89173C93.2024 3.91452 94.3274 7.71737 93.2024 10.8648C92.1908 13.7048 89.6414 15.7762 88.5731 18.6C87.4238 21.6342 88.1684 25.0406 87.7394 28.2528C87.2134 32.2093 84.8097 35.8746 81.3943 37.9298C77.9789 39.985 73.6166 40.3976 69.8694 39.0059" fill="#EC6F2D"/>
<g opacity="0.8">
<path opacity="0.8" d="M67.6114 39.8393C63.322 36.6595 60.6997 31.3355 60.7969 25.9953C60.894 20.6552 63.7023 15.4363 68.097 12.4022C70.5816 10.6949 73.5357 9.64307 75.7452 7.58791C77.7118 5.75931 78.9906 3.22678 81.192 1.68945C83.9275 -0.220063 87.8932 -0.139151 90.5478 1.89173C93.2024 3.91452 94.3274 7.71737 93.2024 10.8648C92.1908 13.7048 89.6414 15.7762 88.5731 18.6C87.4238 21.6342 88.1684 25.0406 87.7394 28.2528C87.2134 32.2093 84.8097 35.8746 81.3943 37.9298C77.9789 39.985 73.6166 40.3976 69.8694 39.0059" fill="white"/>
</g>
<path d="M73.4872 47.372H72.3055C69.8856 47.372 67.9271 45.414 67.9271 42.9947V22.4917H77.8737V42.9947C77.8737 45.4059 75.907 47.372 73.4872 47.372Z" fill="#EC6F2D"/>
<path d="M67.9271 22.4918L72.8963 13.373L77.8737 22.4918H67.9271Z" fill="#FFBE9D"/>
<path d="M70.9297 16.9817C70.9297 16.9817 72.4431 19.2553 74.8711 16.9817L72.9044 13.373L70.9297 16.9817Z" fill="#EC6F2D"/>
<path d="M78.0113 41.9913C78.0113 42.1046 75.7451 42.1936 72.953 42.1936C70.1608 42.1936 67.8947 42.1046 67.8947 41.9913C67.8947 41.8781 70.1608 41.7891 72.953 41.7891C75.7451 41.7891 78.0113 41.8781 78.0113 41.9913Z" fill="#263238"/>
<path d="M77.9061 40.4703C77.9061 40.5836 75.6885 40.6726 72.953 40.6726C70.2174 40.6726 67.9999 40.5836 67.9999 40.4703C67.9999 40.3571 70.2174 40.2681 72.953 40.2681C75.6885 40.2681 77.9061 40.3571 77.9061 40.4703Z" fill="#263238"/>
<path d="M70.8488 22.6372C70.9621 22.6372 71.0511 26.61 71.0511 31.5051C71.0511 36.4003 70.9621 40.373 70.8488 40.373C70.7355 40.373 70.6464 36.4084 70.6464 31.5051C70.6464 26.61 70.7355 22.6372 70.8488 22.6372Z" fill="#FAFAFA"/>
<path d="M74.8711 22.6372C74.9844 22.6372 75.0734 26.61 75.0734 31.5051C75.0734 36.4003 74.9844 40.373 74.8711 40.373C74.7578 40.373 74.6688 36.4084 74.6688 31.5051C74.6688 26.61 74.7578 22.6372 74.8711 22.6372Z" fill="#FAFAFA"/>
<path d="M154.339 302.689L199.532 304.623L200.625 307.252L171.003 355.314L117.539 353.752L154.339 302.689Z" fill="#263238"/>
<path d="M115.508 349.067L169.296 352.142L197.387 308.555L177.664 310.157L127.737 327.739L115.508 349.067Z" fill="#E0E0E0"/>
<path d="M107.956 345.838L157.35 346.615C155.294 340.296 160.134 331.404 166.779 328.41C171.181 326.428 179.461 323.855 183.734 321.662C191.852 317.495 199.192 309.614 198.553 302.842L178.263 302.195L152.373 301.191C150.203 307.616 145.574 311.815 138.533 314.348C132.236 316.613 125.066 316.605 118.915 319.178C109.025 323.337 104.274 336.752 107.956 345.838Z" fill="#EBEBEB"/>
<path d="M107.956 345.839C107.956 345.839 107.908 345.734 107.835 345.523C107.754 345.297 107.641 344.981 107.495 344.568C107.325 344.156 107.22 343.606 107.074 342.966C106.896 342.327 106.84 341.575 106.734 340.717C106.613 339.01 106.629 336.874 107.123 334.438C107.625 332.019 108.58 329.284 110.287 326.598C110.732 325.943 111.153 325.239 111.712 324.616C111.979 324.292 112.23 323.952 112.521 323.637C112.821 323.329 113.128 323.022 113.436 322.714C113.735 322.391 114.075 322.107 114.423 321.824C114.771 321.541 115.111 321.242 115.483 320.975C116.26 320.489 117.005 319.923 117.887 319.542C121.31 317.819 125.398 317.091 129.655 316.322C131.791 315.934 133.985 315.529 136.194 314.922C138.395 314.299 140.605 313.466 142.701 312.301C143.753 311.726 144.773 311.063 145.744 310.31C146.715 309.566 147.622 308.716 148.439 307.762C150.098 305.885 151.353 303.603 152.194 301.143L152.243 301.014L152.381 301.022C159.26 301.281 166.471 301.556 173.957 301.847C181.436 302.138 189.181 302.341 197.112 302.608C197.598 302.624 198.083 302.64 198.561 302.656L198.739 302.664L198.755 302.842C198.893 304.404 198.61 305.965 198.1 307.406C197.873 308.142 197.517 308.822 197.193 309.509C196.813 310.165 196.457 310.836 196.012 311.451C194.328 313.968 192.167 316.071 189.893 317.916C187.595 319.753 185.102 321.274 182.512 322.48C179.906 323.653 177.267 324.608 174.686 325.562C172.104 326.517 169.546 327.423 167.119 328.475C165.929 329.025 164.788 329.665 163.792 330.49C163.266 330.862 162.829 331.339 162.352 331.76C161.931 332.238 161.461 332.666 161.081 333.176C159.487 335.134 158.289 337.351 157.625 339.665C156.929 341.963 156.848 344.399 157.504 346.575L157.568 346.794H157.342C142.377 346.527 130.035 346.308 121.424 346.154C117.126 346.065 113.767 346.001 111.461 345.952C110.32 345.92 109.454 345.903 108.847 345.887C108.256 345.863 107.956 345.839 107.956 345.839C107.956 345.839 108.264 345.831 108.855 345.831C109.454 345.831 110.328 345.839 111.469 345.847C113.776 345.871 117.134 345.912 121.432 345.96C130.051 346.081 142.393 346.251 157.358 346.454L157.196 346.672C156.508 344.423 156.589 341.915 157.301 339.568C157.973 337.197 159.187 334.94 160.806 332.95C161.186 332.432 161.664 331.987 162.093 331.501C162.578 331.072 163.023 330.587 163.566 330.207C164.577 329.357 165.751 328.702 166.965 328.135C169.409 327.067 171.966 326.161 174.548 325.198C177.13 324.243 179.76 323.281 182.342 322.124C184.908 320.934 187.368 319.421 189.642 317.609C191.892 315.78 194.021 313.701 195.68 311.225C196.117 310.626 196.465 309.963 196.837 309.323C197.153 308.652 197.493 307.988 197.719 307.276C198.205 305.876 198.48 304.372 198.351 302.883L198.545 303.061C198.075 303.045 197.582 303.028 197.096 303.012C189.165 302.745 181.419 302.543 173.941 302.244C166.463 301.952 159.244 301.669 152.364 301.402L152.551 301.273C151.693 303.773 150.414 306.103 148.714 308.013C147.881 308.975 146.95 309.841 145.963 310.602C144.983 311.37 143.947 312.042 142.871 312.616C140.742 313.79 138.501 314.623 136.283 315.254C134.057 315.861 131.848 316.266 129.711 316.646C125.454 317.406 121.383 318.118 118.008 319.809C117.142 320.182 116.398 320.74 115.637 321.209C115.273 321.476 114.933 321.768 114.593 322.043C114.245 322.318 113.905 322.593 113.614 322.916C113.306 323.224 113.007 323.523 112.707 323.823C112.416 324.13 112.173 324.47 111.906 324.786C111.356 325.409 110.935 326.096 110.49 326.744C108.782 329.389 107.819 332.092 107.301 334.495C106.791 336.906 106.751 339.026 106.856 340.725C106.953 341.575 107.001 342.327 107.163 342.966C107.301 343.606 107.39 344.148 107.552 344.568C107.681 344.981 107.787 345.305 107.859 345.531C107.932 345.725 107.956 345.839 107.956 345.839Z" fill="#263238"/>
<path d="M166.244 302.001C166.212 301.993 166.309 301.685 166.358 301.119C166.398 300.561 166.366 299.719 165.969 298.789C165.589 297.874 164.828 296.855 163.638 296.289C162.457 295.722 160.903 295.601 159.478 296.143C158.046 296.669 157.01 297.834 156.468 299.04C155.909 300.245 155.828 301.491 155.99 302.478C156.152 303.474 156.532 304.226 156.832 304.703C157.139 305.181 157.366 305.407 157.342 305.432C157.326 305.448 157.058 305.254 156.702 304.792C156.346 304.331 155.917 303.571 155.707 302.527C155.505 301.499 155.545 300.172 156.128 298.886C156.678 297.607 157.779 296.337 159.333 295.771C160.862 295.196 162.538 295.334 163.8 295.965C165.087 296.596 165.872 297.713 166.236 298.692C166.617 299.687 166.609 300.569 166.52 301.143C166.471 301.435 166.414 301.653 166.358 301.799C166.293 301.936 166.261 302.009 166.244 302.001Z" fill="#263238"/>
<path d="M173.99 302.001C173.957 301.993 174.054 301.685 174.103 301.119C174.143 300.561 174.111 299.719 173.715 298.789C173.334 297.874 172.573 296.855 171.384 296.289C170.202 295.722 168.648 295.601 167.224 296.143C165.791 296.669 164.755 297.834 164.213 299.04C163.655 300.245 163.574 301.491 163.735 302.478C163.897 303.474 164.278 304.226 164.577 304.703C164.885 305.181 165.111 305.407 165.087 305.432C165.071 305.448 164.804 305.254 164.448 304.792C164.092 304.331 163.663 303.571 163.452 302.527C163.25 301.499 163.29 300.172 163.873 298.886C164.423 297.607 165.524 296.337 167.078 295.771C168.608 295.196 170.283 295.334 171.546 295.965C172.832 296.596 173.617 297.713 173.982 298.692C174.362 299.687 174.354 300.569 174.265 301.143C174.216 301.435 174.16 301.653 174.103 301.799C174.03 301.936 173.998 302.009 173.99 302.001Z" fill="#263238"/>
<path d="M179.865 302.406C179.825 302.398 179.914 302.082 179.93 301.516C179.938 300.949 179.857 300.116 179.412 299.21C178.983 298.312 178.166 297.341 176.936 296.847C175.73 296.346 174.16 296.313 172.776 296.936C171.376 297.543 170.404 298.765 169.935 299.995C169.441 301.233 169.441 302.479 169.652 303.458C169.87 304.445 170.291 305.173 170.623 305.626C170.955 306.087 171.198 306.306 171.173 306.33C171.157 306.346 170.882 306.168 170.502 305.723C170.121 305.278 169.644 304.55 169.377 303.522C169.109 302.503 169.085 301.184 169.587 299.865C170.064 298.554 171.092 297.227 172.606 296.572C174.103 295.909 175.778 295.949 177.073 296.515C178.392 297.074 179.242 298.142 179.663 299.105C180.1 300.076 180.141 300.957 180.084 301.54C180.052 301.831 180.003 302.058 179.954 302.203C179.906 302.333 179.882 302.406 179.865 302.406Z" fill="#263238"/>
<path d="M186.17 302.761C186.13 302.753 186.203 302.437 186.186 301.871C186.17 301.305 186.041 300.479 185.547 299.597C185.069 298.724 184.203 297.793 182.949 297.364C181.719 296.927 180.157 296.984 178.797 297.672C177.429 298.351 176.531 299.63 176.126 300.876C175.697 302.138 175.762 303.384 176.029 304.347C176.296 305.318 176.758 306.022 177.114 306.467C177.47 306.912 177.721 307.114 177.696 307.138C177.688 307.155 177.397 306.993 176.992 306.572C176.588 306.151 176.078 305.447 175.754 304.436C175.438 303.433 175.341 302.114 175.77 300.771C176.175 299.444 177.13 298.06 178.611 297.324C180.076 296.579 181.743 296.539 183.07 297.024C184.422 297.51 185.32 298.538 185.79 299.468C186.275 300.415 186.364 301.297 186.34 301.879C186.324 302.17 186.292 302.397 186.251 302.543C186.211 302.688 186.186 302.769 186.17 302.761Z" fill="#263238"/>
<path d="M192.483 302.616C192.442 302.608 192.507 302.292 192.475 301.726C192.442 301.167 192.289 300.334 191.771 299.468C191.269 298.611 190.379 297.704 189.116 297.308C187.87 296.903 186.308 297 184.972 297.729C183.621 298.449 182.763 299.743 182.391 301.006C182.002 302.276 182.099 303.522 182.391 304.477C182.69 305.44 183.168 306.135 183.532 306.564C183.904 307.001 184.155 307.195 184.139 307.22C184.131 307.236 183.839 307.082 183.418 306.669C183.006 306.257 182.471 305.569 182.123 304.566C181.775 303.571 181.646 302.26 182.034 300.9C182.407 299.557 183.321 298.149 184.778 297.373C186.219 296.588 187.894 296.499 189.229 296.952C190.589 297.405 191.52 298.4 192.014 299.323C192.523 300.253 192.645 301.135 192.629 301.718C192.621 302.009 192.596 302.235 192.556 302.389C192.523 302.543 192.499 302.616 192.483 302.616Z" fill="#263238"/>
<path d="M197.808 303.328C197.768 303.32 197.841 303.004 197.833 302.438C197.824 301.871 197.703 301.038 197.217 300.156C196.748 299.282 195.898 298.344 194.652 297.899C193.422 297.445 191.86 297.486 190.492 298.157C189.116 298.821 188.202 300.083 187.781 301.329C187.344 302.583 187.384 303.829 187.643 304.8C187.902 305.779 188.347 306.483 188.703 306.928C189.051 307.373 189.302 307.584 189.278 307.608C189.27 307.624 188.978 307.462 188.582 307.033C188.185 306.605 187.675 305.893 187.368 304.881C187.06 303.878 186.979 302.559 187.425 301.216C187.845 299.889 188.817 298.522 190.306 297.801C191.779 297.073 193.446 297.049 194.773 297.559C196.117 298.06 197.007 299.096 197.46 300.035C197.938 300.989 198.019 301.871 197.978 302.454C197.962 302.745 197.922 302.972 197.881 303.117C197.849 303.255 197.816 303.328 197.808 303.328Z" fill="#263238"/>
<path d="M221.085 137.581C218.956 137.524 216.706 137.597 214.391 137.88C200.447 139.612 190.055 151.587 190.079 165.633C190.087 169.727 190.524 174.299 191.811 178.862C195.704 192.665 196.902 204.827 196.457 210.749L209.487 217.748C209.487 217.748 215.516 209.082 221.344 205.352C227.171 201.614 246.562 191.63 254.243 181.354C259.196 174.735 260.143 161.15 248.343 149.264C241.132 142.007 231.315 137.864 221.085 137.581Z" fill="#EC6F2D"/>
<path d="M190.29 225.823L202.057 232.175L194.393 241.908L186.551 238.34L190.29 225.823Z" fill="#455A64"/>
<path d="M190.856 226.212C190.751 226.171 191.916 222.684 193.462 218.412C195.008 214.14 196.343 210.709 196.449 210.749C196.554 210.79 195.388 214.277 193.843 218.549C192.305 222.821 190.961 226.252 190.856 226.212Z" fill="#263238"/>
<path d="M201.313 231.697C201.216 231.64 203.061 228.339 205.432 224.326C207.804 220.313 209.803 217.109 209.9 217.165C209.997 217.222 208.152 220.523 205.78 224.536C203.409 228.55 201.41 231.754 201.313 231.697Z" fill="#263238"/>
<g opacity="0.4">
<path opacity="0.4" d="M225.01 137.945C224.484 137.977 218.009 145.551 215.144 150.68C205.505 167.939 205.076 184.728 202.397 204.309C202.017 207.108 200.625 213.136 200.649 212.999C202.073 214.115 206.865 216.34 206.865 216.34C206.865 216.34 211.381 210.887 213.177 208.144C220.372 197.156 228.174 188.596 234.333 177.001C240.492 165.406 246.417 155.123 240.719 143.293C240.719 143.301 230.853 137.621 225.01 137.945Z" fill="black"/>
</g>
<path d="M254.291 183.094C254.283 183.094 254.227 182.972 254.121 182.721C254.016 182.479 253.887 182.098 253.668 181.629C253.247 180.69 252.551 179.331 251.394 177.802C250.237 176.289 248.618 174.574 246.392 173.141C244.207 171.669 241.383 170.504 238.194 170.107L238.113 170.099L238.064 170.034C236.567 168.02 234.851 165.932 232.804 163.998C230.764 162.073 228.377 160.301 225.625 159.055C222.881 157.833 219.927 157.291 217.143 157.436C214.359 157.574 211.745 158.464 209.722 159.912L209.608 159.993L209.503 159.896C207.083 157.768 204.186 156.668 201.572 156.376C198.941 156.077 196.611 156.554 194.83 157.234C193.041 157.914 191.771 158.788 190.961 159.411C190.557 159.726 190.249 159.985 190.055 160.171C189.853 160.349 189.747 160.438 189.739 160.43C189.731 160.422 189.828 160.317 190.014 160.123C190.201 159.928 190.492 159.653 190.889 159.314C191.69 158.65 192.944 157.744 194.757 157.024C196.554 156.304 198.925 155.786 201.612 156.069C204.283 156.344 207.253 157.445 209.746 159.621L209.519 159.613C211.591 158.116 214.278 157.194 217.135 157.04C219.984 156.878 223.003 157.428 225.803 158.682C228.603 159.945 231.023 161.749 233.087 163.707C235.151 165.665 236.875 167.777 238.364 169.808L238.242 169.735C241.504 170.156 244.361 171.369 246.562 172.882C248.804 174.363 250.423 176.119 251.572 177.664C252.713 179.226 253.385 180.61 253.782 181.572C253.984 182.05 254.089 182.438 254.178 182.689C254.259 182.956 254.3 183.085 254.291 183.094Z" fill="#263238"/>
<path d="M230.068 200.287C229.987 200.311 230.004 199.114 228.943 197.455C228.409 196.654 227.608 195.74 226.442 195.052C225.301 194.348 223.78 193.871 222.129 194.033L221.967 194.049L221.943 193.887C221.684 192.212 220.988 190.432 219.806 188.854C218.632 187.285 216.981 185.885 214.974 185.1C213.323 184.445 211.567 184.21 209.924 184.323C208.273 184.445 206.727 184.914 205.424 185.594L205.303 185.658L205.206 185.553C203.903 184.162 202.219 183.377 200.681 183.102C199.136 182.786 197.727 182.948 196.627 183.231C194.401 183.838 193.454 184.914 193.406 184.825C193.398 184.817 193.454 184.76 193.576 184.647C193.697 184.542 193.867 184.372 194.126 184.186C194.636 183.822 195.437 183.344 196.562 183.013C197.679 182.689 199.128 182.503 200.73 182.802C202.324 183.061 204.089 183.846 205.465 185.302L205.246 185.262C206.59 184.542 208.184 184.048 209.892 183.919C211.591 183.797 213.412 184.032 215.12 184.712C217.208 185.521 218.908 186.977 220.113 188.604C221.327 190.238 222.032 192.083 222.282 193.814L222.096 193.669C223.836 193.515 225.423 194.041 226.588 194.793C227.786 195.53 228.587 196.484 229.113 197.326C229.631 198.175 229.866 198.936 229.979 199.454C230.036 199.713 230.044 199.915 230.06 200.053C230.076 200.214 230.084 200.287 230.068 200.287Z" fill="#263238"/>
<path d="M199.783 235.241C199.751 235.265 199.654 235.079 199.354 234.958C199.055 234.828 198.561 234.812 197.978 234.998C197.679 235.079 197.339 235.184 196.934 235.192C196.53 235.201 196.084 235.006 195.769 234.683C195.146 234.035 194.903 233.089 194.32 232.441C194.029 232.126 193.64 231.956 193.236 231.988C192.831 232.004 192.418 232.142 192.005 232.231C191.601 232.328 191.172 232.393 190.775 232.296C190.379 232.215 190.063 232.021 189.812 231.802C189.31 231.365 189.092 230.847 189.035 230.491C188.979 230.135 189.035 229.933 189.051 229.933C189.084 229.933 189.084 230.127 189.189 230.451C189.286 230.766 189.529 231.212 189.99 231.576C190.225 231.754 190.508 231.907 190.84 231.964C191.164 232.029 191.528 231.972 191.916 231.867C192.305 231.77 192.726 231.616 193.219 231.584C193.713 231.543 194.263 231.77 194.611 232.158C195.299 232.935 195.51 233.865 196.036 234.416C196.295 234.691 196.611 234.844 196.942 234.853C197.274 234.869 197.598 234.78 197.905 234.723C198.521 234.561 199.095 234.618 199.419 234.82C199.751 235.014 199.799 235.241 199.783 235.241Z" fill="#263238"/>
<path d="M201.135 233.356C201.086 233.453 198.512 232.183 195.397 230.524C192.281 228.857 189.788 227.433 189.845 227.336C189.893 227.239 192.467 228.509 195.583 230.168C198.699 231.827 201.183 233.259 201.135 233.356Z" fill="#263238"/>
<path d="M198.796 236.317C198.804 236.35 198.634 236.398 198.351 236.528C198.205 236.592 198.043 236.689 197.816 236.778C197.59 236.875 197.298 236.908 197.007 236.884C196.416 236.843 195.696 236.657 195.065 236.139C194.757 235.888 194.49 235.516 194.328 235.12C194.158 234.739 194.021 234.343 193.762 234.06C193.228 233.485 192.353 233.421 191.633 233.445C190.889 233.469 190.16 233.493 189.586 233.251C189.019 233.016 188.679 232.611 188.55 232.304C188.42 231.988 188.461 231.794 188.485 231.794C188.517 231.786 188.533 231.972 188.687 232.231C188.841 232.49 189.173 232.806 189.683 232.984C190.193 233.162 190.856 233.121 191.617 233.073C192.353 233.032 193.349 233.048 194.061 233.785C194.393 234.157 194.531 234.594 194.692 234.958C194.846 235.33 195.049 235.621 195.316 235.856C195.85 236.325 196.497 236.528 197.039 236.6C197.582 236.697 197.978 236.471 198.302 236.382C198.61 236.293 198.788 236.301 198.796 236.317Z" fill="#263238"/>
<path d="M109.939 160.754L130.294 157.736L120.566 143.957L115.346 144.264C111.833 144.474 108.742 146.643 107.35 149.871C106.613 151.587 106.403 153.488 106.759 155.317L109.939 160.754Z" fill="#EC6F2D"/>
<path opacity="0.4" d="M109.939 160.754L130.294 157.736L120.566 143.957L115.346 144.264C111.833 144.474 108.742 146.643 107.35 149.871C106.613 151.587 106.403 153.488 106.759 155.317L109.939 160.754Z" fill="black"/>
<path d="M197.355 183.296C197.566 183.878 197.792 184.566 198.027 185.391C198.229 186.103 198.294 186.84 198.245 187.568C198.189 188.458 198.059 189.639 197.784 190.262C197.452 191.031 198.229 191.808 198.885 191.427C199.54 191.039 200.52 188.935 200.455 186.233C200.398 183.522 203.158 186.767 204.186 187.932C205.214 189.097 208.564 192.552 209.171 192.52C210.062 192.471 210.175 191.508 209.123 190.367C208.054 189.21 205.149 185.586 205.788 185.076C206.42 184.574 211.575 190.57 211.575 190.57C211.575 190.57 212.465 192.034 213.226 191.46C214.602 190.432 208.653 184.461 208.071 183.903C207.666 183.514 208.346 182.932 208.759 183.369C209.179 183.822 213.76 189.477 215.168 188.442C216.245 187.649 210.321 183.482 210.021 181.783C209.722 180.084 214.197 185.399 215.193 184.607C215.565 184.307 215.8 184.04 212.797 181.354C211.34 180.051 205.788 176.167 205.788 176.167L189.084 128.349L176.183 135.736L197.355 183.296Z" fill="#FFBE9D"/>
<path d="M97.9208 92.8686L79.2577 70.6017C79.0149 69.8331 78.7235 69.0887 78.3431 68.3847C77.4124 66.6451 75.8666 65.1321 73.9404 64.7114C72.7588 64.4524 71.3991 64.5738 70.4764 63.7971C70.0637 63.4491 69.7804 62.9556 69.3515 62.6319C68.9144 62.3083 68.1941 62.2436 67.9109 62.7128C67.7166 63.0446 67.838 63.4653 67.9918 63.8213C68.6878 65.4638 69.8128 66.9202 71.2291 68.0045C69.481 68.5385 66.9801 69.3395 66.9801 69.3395C66.9801 69.3395 63.0306 65.0593 61.0154 65.0755C59.0002 65.0916 62.6502 68.8945 62.6502 68.8945C62.6502 68.8945 59.4129 65.9008 58.4093 66.7503C57.4058 67.5918 59.9794 69.8088 59.9794 69.8088C59.162 69.3719 58.2718 68.9188 57.3572 69.0725C56.4427 69.2262 55.6576 70.3024 56.1513 71.0872C56.3375 71.3866 56.6612 71.5727 56.9768 71.7426C58.636 72.665 60.287 73.5874 61.9461 74.5098C62.7797 74.971 63.6538 75.4483 64.6007 75.4807C67.1177 75.5616 69.0358 74 71.5609 74.0647C71.5609 74.0647 85.6352 103.687 87.0596 105.216C88.484 106.745 119.409 108.824 119.409 108.824L137.303 93.4107L97.9208 92.8686Z" fill="#FFBE9D"/>
<path d="M153.983 254.231L173.043 262.532L162.837 286.296C160.628 285.18 161.348 270.931 161.348 270.931L148.917 266.109L153.983 254.231Z" fill="#EC6F2D"/>
<g opacity="0.6">
<path opacity="0.6" d="M163.476 263.139C163.8 262.735 164.456 262.638 164.869 262.945C165.289 263.253 165.395 263.916 165.071 264.329C164.755 264.741 163.97 264.879 163.59 264.531C163.209 264.183 163.128 263.39 163.533 263.067" fill="white"/>
</g>
<path opacity="0.6" d="M173.051 262.533L171.1 261.772L162.044 284.84C162.044 284.84 162.052 286.094 162.845 286.296L173.051 262.533Z" fill="white"/>
<path d="M161.065 271.263C161.186 271.312 161.486 270.753 162.101 270.341C162.708 269.912 163.339 269.839 163.339 269.71C163.363 269.596 162.594 269.467 161.858 269.977C161.113 270.478 160.951 271.239 161.065 271.263Z" fill="#263238"/>
<path d="M161.024 274.2C161.121 274.273 161.542 273.86 162.198 273.674C162.853 273.472 163.428 273.601 163.468 273.48C163.533 273.375 162.886 273.002 162.068 273.253C161.259 273.488 160.919 274.143 161.024 274.2Z" fill="#263238"/>
<path d="M163.404 276.894C163.476 276.797 162.967 276.393 162.198 276.417C161.437 276.433 160.951 276.878 161.024 276.967C161.089 277.072 161.583 276.87 162.214 276.854C162.837 276.83 163.339 277.008 163.404 276.894Z" fill="#263238"/>
<path d="M158.353 269.847C158.483 269.847 158.548 269.24 158.871 268.609C159.187 267.962 159.624 267.549 159.551 267.444C159.495 267.339 158.855 267.654 158.475 268.407C158.102 269.167 158.24 269.871 158.353 269.847Z" fill="#263238"/>
<path d="M155.78 268.075C155.828 268.099 156.095 267.671 156.282 266.886C156.379 266.497 156.443 266.012 156.435 265.478C156.435 265.211 156.411 264.928 156.362 264.636C156.338 264.499 156.322 264.337 156.233 264.159C156.168 263.981 155.893 263.771 155.642 263.843C155.407 263.884 155.238 264.07 155.157 264.24C155.076 264.41 155.051 264.572 155.027 264.709C154.979 265 154.962 265.284 154.962 265.559C154.97 266.101 155.076 266.586 155.213 266.967C155.488 267.735 155.836 268.107 155.877 268.083C155.942 268.051 155.691 267.622 155.513 266.878C155.424 266.505 155.359 266.06 155.367 265.559C155.375 265.308 155.399 265.049 155.448 264.782C155.488 264.499 155.577 264.288 155.723 264.272C155.78 264.264 155.796 264.272 155.845 264.353C155.893 264.434 155.909 264.564 155.934 264.701C155.982 264.968 156.006 265.235 156.023 265.486C156.047 265.988 156.023 266.449 155.966 266.829C155.877 267.59 155.715 268.051 155.78 268.075Z" fill="#263238"/>
<path d="M156.006 267.994C156.039 267.961 155.723 267.549 154.995 267.185C154.63 267.007 154.161 266.853 153.619 266.788C153.352 266.756 153.06 266.756 152.769 266.78C152.478 266.82 152.089 266.853 151.838 267.282C151.725 267.516 151.83 267.783 151.96 267.921C152.089 268.067 152.219 268.139 152.34 268.228C152.599 268.39 152.874 268.503 153.141 268.576C153.675 268.722 154.185 268.69 154.59 268.592C155.407 268.39 155.755 267.969 155.715 267.945C155.675 267.88 155.278 268.188 154.533 268.293C154.169 268.342 153.716 268.334 153.255 268.188C153.028 268.115 152.793 268.01 152.575 267.872C152.34 267.727 152.178 267.541 152.243 267.46C152.292 267.338 152.567 267.225 152.81 267.209C153.077 267.176 153.336 267.176 153.578 267.193C154.072 267.225 154.509 267.338 154.865 267.476C155.585 267.735 155.966 268.05 156.006 267.994Z" fill="#263238"/>
<path d="M139.302 286.879L147.185 303.393L149.653 318.248C149.831 319.316 150.875 320.012 151.936 319.761C152.526 319.624 153.012 319.211 153.239 318.645C154.687 315.06 159.956 301.831 159.309 300.658C158.564 299.299 152.146 282.688 152.146 282.688L139.302 286.879Z" fill="#EC6F2D"/>
<path opacity="0.6" d="M151.944 319.762L158.815 299.534L159.13 300.238C159.406 300.853 159.454 301.54 159.268 302.179C158.766 303.903 157.285 308.628 153.295 318.621C153.06 319.211 152.551 319.64 151.944 319.762Z" fill="white"/>
<g opacity="0.6">
<path opacity="0.6" d="M152.963 295.69C152.672 296.167 152.826 296.863 153.287 297.171C153.748 297.478 154.461 297.332 154.752 296.863C155.051 296.394 154.898 295.552 154.404 295.302C153.91 295.051 153.085 295.261 152.915 295.795" fill="white"/>
</g>
<path d="M152.478 310.756C152.405 310.845 151.636 310.141 150.43 310.117C149.224 310.06 148.407 310.707 148.342 310.61C148.31 310.578 148.464 310.351 148.828 310.117C149.192 309.882 149.775 309.688 150.446 309.712C151.11 309.736 151.685 309.979 152.033 310.23C152.373 310.489 152.51 310.723 152.478 310.756Z" fill="#263238"/>
<path d="M152.292 313.523C152.243 313.628 151.466 313.329 150.487 313.467C149.508 313.588 148.836 314.082 148.763 313.993C148.674 313.928 149.321 313.216 150.438 313.07C151.547 312.924 152.356 313.442 152.292 313.523Z" fill="#263238"/>
<path d="M153.4 306.896C153.36 307.01 152.162 306.54 150.624 306.629C149.087 306.694 147.946 307.277 147.889 307.163C147.824 307.082 148.957 306.298 150.608 306.225C152.251 306.136 153.465 306.815 153.4 306.896Z" fill="#263238"/>
<path d="M151.426 301.677C151.426 301.799 150.333 301.823 149.111 302.325C147.881 302.802 147.071 303.538 146.99 303.449C146.91 303.384 147.646 302.47 148.965 301.952C150.276 301.418 151.442 301.58 151.426 301.677Z" fill="#263238"/>
<path d="M149.232 296.774C149.224 296.896 148.043 296.758 146.804 297.381C145.55 297.98 144.943 298.999 144.838 298.935C144.797 298.91 144.886 298.619 145.169 298.223C145.453 297.826 145.955 297.349 146.626 297.017C147.298 296.685 147.986 296.58 148.472 296.596C148.957 296.612 149.24 296.726 149.232 296.774Z" fill="#263238"/>
<path d="M146.416 296.434C146.392 296.442 146.254 296.24 146.108 295.811C145.963 295.391 145.817 294.743 145.866 293.934C145.906 293.546 145.914 293.06 146.278 292.631C146.456 292.413 146.829 292.308 147.12 292.437C147.411 292.567 147.598 292.809 147.719 293.068C148.18 294.136 147.727 295.569 146.602 296.256C145.461 296.928 144.077 296.726 143.187 296.03C142.976 295.836 142.774 295.585 142.774 295.245C142.774 294.905 143.065 294.638 143.316 294.573C143.842 294.428 144.287 294.573 144.676 294.654C145.461 294.857 146.036 295.18 146.4 295.439C146.764 295.698 146.934 295.884 146.918 295.9C146.877 295.973 146.125 295.269 144.611 294.929C144.239 294.865 143.802 294.768 143.429 294.889C143.251 294.954 143.13 295.083 143.13 295.253C143.13 295.415 143.26 295.609 143.429 295.755C144.166 296.321 145.437 296.499 146.392 295.916C147.347 295.35 147.735 294.088 147.379 293.222C147.29 293.012 147.144 292.834 146.974 292.761C146.812 292.688 146.634 292.729 146.505 292.858C146.238 293.133 146.181 293.586 146.133 293.958C146.003 295.504 146.497 296.418 146.416 296.434Z" fill="#263238"/>
<path d="M165.872 256.246L144.255 241.698L151.409 171.475L130.933 159.524L112.214 155.187C112.214 155.187 104.395 171.45 100.915 181.864C93.5181 204.009 88.3303 211.938 89.5119 227.991C89.8842 233.073 108.653 245.776 120.501 252.839C120.663 254.458 120.873 255.874 121.132 257.047C125.179 275.349 137.538 299.679 137.538 299.679L156.322 290.949L150.26 270.195L156.573 273.876L165.872 256.246ZM119.409 210.968L121.934 199.713C121.399 206.873 120.914 214.333 120.566 221.494C119.352 218.185 118.931 214.503 119.409 210.968Z" fill="#263238"/>
<path d="M137.537 299.671C137.529 299.671 137.481 299.574 137.392 299.372C137.295 299.153 137.165 298.862 137.003 298.49C136.663 297.689 136.178 296.54 135.555 295.067C134.308 292.09 132.52 287.769 130.375 282.404C128.238 277.04 125.689 270.648 123.131 263.447C122.492 261.643 121.869 259.79 121.278 257.872C121.019 256.901 120.687 255.946 120.517 254.919C120.469 254.668 120.412 254.409 120.372 254.158L120.283 253.39C120.226 252.88 120.169 252.362 120.113 251.844C119.894 249.773 119.708 247.669 119.578 245.525C119.514 244.457 119.449 243.373 119.408 242.28C119.368 241.196 119.319 240.088 119.384 238.987C119.7 230.16 120.444 221.802 121.051 214.188C121.691 206.582 122.257 199.729 122.743 193.968C123.212 188.215 123.536 183.555 123.722 180.326C123.819 178.716 123.876 177.462 123.916 176.612C123.941 176.2 123.957 175.884 123.965 175.65C123.981 175.431 123.989 175.318 123.997 175.318C124.005 175.318 124.005 175.431 124.005 175.65C124.005 175.884 123.997 176.208 123.989 176.621C123.981 177.47 123.949 178.724 123.868 180.342C123.73 183.571 123.447 188.239 123.018 194C122.557 199.761 122.015 206.615 121.416 214.228C120.825 221.842 120.096 230.216 119.781 239.012C119.716 240.112 119.765 241.196 119.805 242.28C119.846 243.365 119.902 244.441 119.975 245.509C120.113 247.645 120.291 249.749 120.501 251.812C120.558 252.33 120.614 252.839 120.671 253.349L120.76 254.11C120.801 254.36 120.857 254.603 120.906 254.854C121.068 255.841 121.391 256.804 121.65 257.767C122.233 259.676 122.848 261.529 123.488 263.325C126.029 270.519 128.546 276.919 130.65 282.299C132.779 287.648 134.511 291.984 135.716 295.002C136.307 296.483 136.777 297.648 137.1 298.457C137.246 298.838 137.368 299.137 137.457 299.355C137.513 299.566 137.546 299.671 137.537 299.671Z" fill="#455A64"/>
<path d="M123.091 172.955C123.075 172.98 122.905 172.834 122.597 172.559C122.314 172.26 121.974 171.766 121.683 171.095C121.1 169.743 120.809 167.721 120.76 165.52C120.72 163.311 120.881 161.32 121.027 159.896C121.173 158.464 121.294 157.582 121.351 157.59C121.408 157.59 121.383 158.488 121.31 159.921C121.238 161.353 121.124 163.335 121.165 165.52C121.205 167.696 121.456 169.67 121.95 170.997C122.193 171.661 122.484 172.154 122.719 172.47C122.978 172.753 123.107 172.931 123.091 172.955Z" fill="#455A64"/>
<path d="M115.006 156.239C115.046 156.231 115.24 156.975 115.168 158.205C115.103 159.419 114.682 161.134 113.622 162.704C112.553 164.273 111.113 165.285 110.004 165.794C108.887 166.312 108.126 166.401 108.118 166.361C108.102 166.296 108.831 166.102 109.875 165.536C110.919 164.977 112.27 163.974 113.29 162.477C114.31 160.98 114.755 159.354 114.892 158.181C115.03 156.991 114.941 156.247 115.006 156.239Z" fill="#455A64"/>
<path d="M148.593 197.067C148.601 197.067 148.601 197.14 148.585 197.277C148.569 197.439 148.552 197.649 148.536 197.9C148.48 198.475 148.399 199.284 148.293 200.295C148.067 202.407 147.735 205.409 147.33 209.107C146.489 216.567 145.323 226.826 144.036 238.154C143.543 243.826 144.036 249.287 145.105 254.093C145.631 256.505 146.327 258.746 147.063 260.817C147.792 262.889 148.472 264.822 149.087 266.594C150.309 270.106 151.296 272.962 151.992 274.969C152.316 275.94 152.575 276.7 152.761 277.25C152.842 277.493 152.899 277.687 152.955 277.849C152.996 277.987 153.012 278.051 153.004 278.059C152.996 278.059 152.963 277.995 152.915 277.865C152.858 277.712 152.777 277.517 152.688 277.283C152.486 276.741 152.203 275.98 151.846 275.025C151.118 273.027 150.09 270.187 148.82 266.691C148.188 264.927 147.492 263.002 146.748 260.93C145.995 258.859 145.283 256.602 144.741 254.182C143.648 249.344 143.138 243.842 143.64 238.121C144.902 226.761 146.157 216.51 147.047 209.074C147.5 205.385 147.873 202.383 148.132 200.279C148.269 199.268 148.374 198.467 148.447 197.892C148.488 197.641 148.512 197.431 148.536 197.269C148.577 197.14 148.593 197.067 148.593 197.067Z" fill="#455A64"/>
<path d="M112.214 155.049L115.532 146.586L123.091 157.857L113.007 155.341" fill="#FFBE9D"/>
<path d="M191.382 129.594L182.407 109.472C181.33 106.235 179.323 105.733 177.632 103.856L155.14 91.1774C138.752 84.4618 129.825 106.979 129.825 106.979L114.925 140.954C97.4029 146.764 109.81 160.211 109.81 160.211C109.81 160.211 105.043 151.926 109.729 148.94C114.634 145.809 120.08 154.054 125.309 161.886C131.484 171.126 151.539 177.13 151.539 177.13C153.886 174.654 153.23 166.005 155.068 161.36C155.65 159.888 169.538 127.725 169.538 127.725L174.92 140.768C174.92 140.768 181.824 132.677 185.167 131.391C188.501 130.104 191.382 129.594 191.382 129.594Z" fill="#EC6F2D"/>
<path d="M151.531 143.892C151.547 143.916 151.304 144.094 150.851 144.369C150.39 144.644 149.702 145 148.803 145.34C147.023 146.028 144.328 146.554 141.414 146.109C138.493 145.656 136.089 144.337 134.6 143.147C133.847 142.557 133.297 142.006 132.941 141.61C132.584 141.205 132.414 140.971 132.439 140.955C132.495 140.898 133.248 141.82 134.778 142.929C136.283 144.037 138.646 145.283 141.487 145.72C144.328 146.157 146.95 145.688 148.722 145.081C150.495 144.466 151.49 143.827 151.531 143.892Z" fill="#263238"/>
<path d="M114.253 111.98L128.133 113.291L150.341 89.8264L137.279 89.3813L114.018 91.6792C114.018 91.6711 116.082 101.364 114.253 111.98Z" fill="#EC6F2D"/>
<path d="M133.531 99.6165C133.548 99.6246 133.483 99.7703 133.361 100.045C133.216 100.361 133.03 100.757 132.803 101.243C132.293 102.327 131.597 103.816 130.739 105.636C129.015 109.358 126.725 114.537 124.24 120.281C121.756 126.026 119.498 131.229 117.79 134.959C116.94 136.828 116.236 138.333 115.726 139.36C115.483 139.846 115.289 140.234 115.135 140.542C114.998 140.809 114.917 140.946 114.909 140.946C114.892 140.938 114.949 140.792 115.062 140.509C115.2 140.194 115.37 139.789 115.58 139.296C116.058 138.195 116.722 136.69 117.523 134.845C119.166 131.035 121.399 125.856 123.86 120.128C126.344 114.383 128.675 109.213 130.472 105.523C131.362 103.678 132.107 102.19 132.649 101.178C132.9 100.701 133.11 100.32 133.272 100.013C133.434 99.746 133.515 99.6085 133.531 99.6165Z" fill="#263238"/>
<path d="M175.9 106.446C175.94 106.51 175.074 106.963 173.901 107.959C173.31 108.452 172.671 109.116 172.023 109.9C171.4 110.702 170.785 111.64 170.259 112.692C169.757 113.752 169.401 114.812 169.158 115.799C168.939 116.794 168.818 117.7 168.794 118.469C168.737 120.006 168.915 120.961 168.842 120.977C168.818 120.985 168.753 120.751 168.672 120.314C168.624 120.095 168.583 119.836 168.567 119.521C168.543 119.213 168.494 118.857 168.511 118.461C168.494 117.676 168.591 116.738 168.794 115.71C169.02 114.69 169.377 113.598 169.895 112.506C170.429 111.422 171.068 110.467 171.732 109.658C172.412 108.865 173.083 108.209 173.715 107.732C174.014 107.473 174.322 107.295 174.581 107.117C174.84 106.939 175.074 106.81 175.268 106.713C175.665 106.518 175.884 106.421 175.9 106.446Z" fill="#263238"/>
<path d="M179.776 74.2108L166.754 98.5491C164.626 102.522 159.794 104.172 155.675 102.336C151.142 100.313 149.273 94.8757 151.587 90.4903C152.818 88.1681 153.837 86.2748 153.837 86.2748C153.837 86.2748 148.172 82.6095 150.827 76.4925C153.19 71.0391 161.866 55.6335 163.703 52.3809L174.678 57.2922C180.845 60.4882 183.151 68.1425 179.776 74.2108Z" fill="#FFBE9D"/>
<path d="M153.87 86.1777C153.87 86.1777 157.577 88.2086 162.813 87.4723C162.813 87.4723 158.977 91.0082 153.15 87.7474L153.87 86.1777Z" fill="#EB996E"/>
<path d="M158.054 66.7272C157.835 67.1804 158.03 67.7386 158.499 67.9814C158.969 68.2241 159.527 68.0542 159.746 67.6011C159.964 67.148 159.77 66.5897 159.3 66.347C158.831 66.1042 158.273 66.2741 158.054 66.7272Z" fill="#263238"/>
<path d="M158.103 65.9503C158.159 66.1121 159.033 65.9179 159.972 66.3387C160.911 66.7432 161.38 67.5362 161.534 67.4634C161.607 67.4391 161.591 67.1802 161.388 66.8323C161.194 66.4843 160.781 66.0474 160.199 65.7885C159.616 65.5296 159.025 65.5296 158.653 65.6186C158.256 65.7157 158.07 65.8775 158.103 65.9503Z" fill="#263238"/>
<path d="M166.795 71.024C166.576 71.4771 166.77 72.0354 167.24 72.2781C167.709 72.5209 168.268 72.351 168.486 71.8979C168.705 71.4447 168.511 70.8864 168.041 70.6437C167.58 70.401 167.021 70.579 166.795 71.024Z" fill="#263238"/>
<path d="M167.216 70.2389C167.272 70.4007 168.146 70.2065 169.085 70.6273C170.024 71.0318 170.493 71.8248 170.647 71.7519C170.72 71.7196 170.704 71.4687 170.501 71.1208C170.307 70.7729 169.894 70.336 169.312 70.0771C168.729 69.8181 168.138 69.8181 167.766 69.9071C167.369 70.0042 167.183 70.158 167.216 70.2389Z" fill="#263238"/>
<path d="M160.717 75.6516C160.741 75.603 160.207 75.2389 159.325 74.6968C159.098 74.5673 158.896 74.4136 158.928 74.2356C158.952 74.0414 159.163 73.823 159.406 73.5964C159.891 73.119 160.393 72.6174 160.927 72.0914C163.064 69.9392 164.731 68.1349 164.642 68.0459C164.553 67.9569 162.748 69.6317 160.611 71.784C160.093 72.318 159.592 72.8277 159.114 73.3132C158.904 73.5479 158.612 73.7825 158.572 74.1951C158.556 74.4055 158.677 74.6078 158.807 74.7211C158.936 74.8344 159.074 74.8991 159.187 74.9557C160.102 75.4331 160.692 75.7001 160.717 75.6516Z" fill="#263238"/>
<path d="M163.177 77.5285C163.031 77.4476 162.57 78.4671 161.38 78.7988C160.191 79.1305 159.163 78.5318 159.09 78.6774C159.049 78.7341 159.244 78.9849 159.697 79.1953C160.134 79.4137 160.854 79.5594 161.583 79.3571C162.311 79.1548 162.805 78.6612 163.023 78.2648C163.25 77.8521 163.25 77.5528 163.177 77.5285Z" fill="#263238"/>
<path d="M168.608 66.4682C168.583 66.7676 169.571 67.0589 170.615 67.6819C171.667 68.2806 172.403 69.0007 172.654 68.8389C172.768 68.758 172.719 68.4505 172.476 68.046C172.233 67.6414 171.772 67.156 171.149 66.7838C170.526 66.4197 169.87 66.2498 169.401 66.2336C168.915 66.2174 168.624 66.3226 168.608 66.4682Z" fill="#263238"/>
<path d="M159.656 63.4012C159.729 63.6844 160.466 63.7573 161.251 64.089C162.044 64.3965 162.619 64.8738 162.87 64.7201C162.983 64.6392 162.975 64.3803 162.781 64.0566C162.586 63.733 162.19 63.3527 161.647 63.1342C161.105 62.9158 160.563 62.8996 160.191 62.9967C159.818 63.0857 159.632 63.2637 159.656 63.4012Z" fill="#263238"/>
<path d="M175.681 77.8599C175.803 77.8599 180.416 78.491 178.417 82.5932C176.426 86.6954 172.719 83.8473 172.768 83.726C172.824 83.6046 175.681 77.8599 175.681 77.8599Z" fill="#FFBE9D"/>
<path d="M174.783 82.7794C174.807 82.7713 174.832 82.8603 174.921 82.9816C175.01 83.0949 175.196 83.2244 175.447 83.2487C175.956 83.2972 176.653 82.7875 177.033 82.0593C177.227 81.6952 177.316 81.2987 177.332 80.9427C177.357 80.5786 177.259 80.2792 177.065 80.1336C176.871 79.9798 176.652 80.0365 176.547 80.1255C176.434 80.2145 176.426 80.3116 176.402 80.3035C176.385 80.3116 176.345 80.1902 176.458 80.0365C176.515 79.9636 176.612 79.8908 176.742 79.8585C176.879 79.8261 177.041 79.8585 177.187 79.9475C177.494 80.1255 177.632 80.5543 177.624 80.9427C177.632 81.3472 177.535 81.7922 177.316 82.2049C176.887 83.014 176.086 83.5885 175.414 83.4671C175.09 83.4024 174.888 83.2001 174.815 83.0383C174.742 82.8846 174.759 82.7794 174.783 82.7794Z" fill="#EB996E"/>
<path d="M178.061 78.7579C177.494 78.3209 176.134 78.418 175.6 78.8873C175.066 79.3566 174.702 80.0039 174.168 80.4813C173.634 80.9587 172.784 81.2176 172.217 80.7887C171.829 80.4894 171.699 79.9392 171.772 79.4537C171.853 78.9682 172.104 78.5313 172.363 78.1106C173.48 76.282 174.751 74.5343 175.697 72.6167C176.652 70.6991 177.284 68.5387 177 66.4107C176.717 64.2828 175.382 62.2114 173.358 61.4994C172.023 61.022 170.534 61.1677 169.166 60.7712C167.548 60.3019 166.18 59.0478 165.573 57.47C165.492 57.2677 165.039 56.5476 165.039 56.5476C165.087 56.4505 165.565 55.6171 166.05 55.4553C169.652 54.2416 174.54 55.6333 177.527 57.9878C180.513 60.3424 182.601 64.129 182.642 67.9319C182.682 71.7266 180.286 75.9259 178.061 78.7579Z" fill="#263238"/>
<path d="M178.101 78.3451C179.242 76.4114 181.088 75.0035 182.496 73.2558C183.904 71.5081 184.875 69.0403 183.872 67.0337C183.532 66.3459 182.981 65.7715 182.69 65.0594C182.399 64.3474 182.399 63.5545 182.293 62.7858C181.954 60.4232 180.456 58.2629 178.376 57.0977C176.936 56.2967 175.277 55.965 173.812 55.1963C171.497 53.9826 169.805 51.7252 167.377 50.7704C166.568 50.4549 165.629 50.2931 164.86 50.6976C164.092 51.0941 163.679 52.2107 164.237 52.8741C164.14 52.0974 163.129 51.6767 162.416 51.9922C161.704 52.3159 161.34 53.1654 161.388 53.9422C161.437 54.7189 161.825 55.439 162.271 56.0863C163.744 58.1981 166.002 59.7516 168.502 60.3747L174.087 59.9377L178.668 63.3279L182.059 68.7247L175.908 76.7107L178.101 78.3451Z" fill="#263238"/>
<path d="M143.146 46.5063C142.442 35.6318 133.062 27.395 122.185 28.0908C111.307 28.7948 103.068 38.1724 103.764 49.047C104.274 56.9197 109.332 63.4088 116.212 66.1274C116.365 68.4577 116.535 71.0954 116.535 71.0954L133.79 69.9788C133.79 69.9788 133.717 67.1874 133.596 64.6953C139.731 61.0219 143.64 54.1282 143.146 46.5063Z" fill="#EC6F2D"/>
<path d="M127.55 70.3024C127.55 70.3024 127.55 70.2215 127.55 70.0596C127.558 69.8897 127.567 69.6551 127.583 69.3476C127.615 68.7165 127.672 67.7941 127.769 66.5966C127.866 65.4072 128.004 63.9427 128.279 62.2678C128.554 60.593 128.959 58.6835 129.711 56.6769C130.092 55.6736 130.537 54.6379 131.144 53.6265C131.459 53.1329 131.856 52.6394 132.414 52.3319C132.973 52.0244 133.685 51.9759 134.284 52.2753C134.583 52.4209 134.842 52.6879 134.956 53.0116C135.085 53.3352 135.069 53.7074 134.94 54.031C134.672 54.6702 134.122 55.1476 133.507 55.4389C132.236 55.981 130.731 55.9567 129.396 55.4146C128.052 54.8725 126.943 53.7236 126.401 52.3076C126.142 51.6037 125.972 50.8269 126.134 50.0421C126.272 49.2653 126.968 48.5371 127.834 48.5614C128.263 48.5614 128.667 48.8284 128.878 49.1925C129.096 49.5485 129.177 49.9855 129.112 50.3981C128.975 51.2315 128.424 51.8869 127.858 52.4452C126.684 53.5537 125.033 54.2333 123.358 54.0715C121.691 53.9178 120.145 52.9226 119.368 51.4823C118.963 50.7784 118.818 49.8965 119.085 49.1035C119.214 48.7151 119.489 48.343 119.894 48.1811C120.283 48.0031 120.744 48.0436 121.116 48.2135C121.489 48.3834 121.804 48.6747 122.006 49.0226C122.209 49.3705 122.322 49.7508 122.379 50.1392C122.484 50.9079 122.427 51.6846 122.225 52.4047C121.837 53.8611 120.898 55.1314 119.659 55.8839C118.429 56.6445 116.972 56.9196 115.621 56.7092C114.957 56.604 114.269 56.3856 113.784 55.8839C113.314 55.3904 113.136 54.5732 113.549 53.9987C113.751 53.7155 114.083 53.5537 114.407 53.5051C114.731 53.4647 115.062 53.5051 115.362 53.6265C115.969 53.8773 116.357 54.3951 116.657 54.8968C117.223 55.9325 117.685 56.9439 118.154 57.9067C119.983 61.7743 121.31 64.9703 122.209 67.1873C122.654 68.2958 122.986 69.1615 123.212 69.7522C123.318 70.0435 123.399 70.2619 123.463 70.4237C123.52 70.5775 123.544 70.6584 123.544 70.6584C123.544 70.6584 123.504 70.5856 123.447 70.4318C123.382 70.27 123.293 70.0515 123.172 69.7684C122.929 69.1777 122.573 68.32 122.128 67.2196C121.205 65.0188 119.854 61.8309 118.008 57.9795C117.539 57.0248 117.061 55.9972 116.511 54.9858C116.22 54.5003 115.839 54.0149 115.305 53.7964C114.787 53.5779 114.083 53.6265 113.735 54.1039C113.395 54.5732 113.541 55.3014 113.954 55.7302C114.383 56.1833 115.022 56.3937 115.669 56.4908C116.964 56.693 118.381 56.426 119.554 55.6897C120.736 54.9615 121.642 53.7398 122.006 52.34C122.201 51.6442 122.249 50.8917 122.152 50.1635C122.055 49.4514 121.707 48.7151 121.027 48.4239C120.703 48.2782 120.323 48.2459 119.999 48.3915C119.676 48.5291 119.441 48.8284 119.319 49.1763C119.085 49.8803 119.206 50.6975 119.595 51.361C120.331 52.7284 121.812 53.675 123.399 53.8288C124.993 53.9825 126.587 53.3271 127.712 52.2672C128.263 51.7332 128.781 51.102 128.902 50.3577C128.959 50.0016 128.886 49.6214 128.7 49.3139C128.513 49.0064 128.198 48.8042 127.85 48.7961C127.502 48.788 127.154 48.9336 126.895 49.1763C126.628 49.411 126.466 49.7427 126.393 50.0906C126.239 50.7946 126.393 51.5471 126.644 52.2186C127.154 53.5779 128.222 54.6783 129.509 55.1962C130.78 55.7221 132.245 55.7383 133.442 55.2366C134.025 54.9615 134.543 54.5165 134.778 53.9501C135.029 53.3838 134.762 52.7041 134.219 52.4533C133.693 52.1863 133.03 52.2267 132.528 52.5018C132.01 52.785 131.629 53.2462 131.322 53.7236C130.723 54.7107 130.27 55.7464 129.897 56.7335C129.137 58.7239 128.724 60.6172 128.441 62.2921C128.157 63.967 128.004 65.4153 127.898 66.6047C127.801 67.786 127.72 68.7084 127.672 69.3476C127.648 69.6551 127.623 69.8897 127.615 70.0596C127.567 70.2215 127.55 70.3024 127.55 70.3024Z" fill="#263238"/>
<path d="M132.673 73.2636L117.855 74.2184C117.24 74.2588 116.713 73.7896 116.673 73.1746C116.633 72.5597 117.102 72.0338 117.717 71.9933L132.536 71.0386C133.151 70.9981 133.677 71.4674 133.717 72.0823C133.758 72.6892 133.289 73.2232 132.673 73.2636Z" fill="#263238"/>
<path d="M132.738 74.2349L117.919 75.1896C117.304 75.2301 116.843 75.756 116.875 76.371C116.916 76.9859 117.442 77.4471 118.057 77.4147L119.684 77.3095L122.104 81.2742C122.379 81.7273 122.889 81.9943 123.415 81.9539L128.708 81.614C129.242 81.5817 129.711 81.2499 129.93 80.7564L131.759 76.5247L132.868 76.4519C133.483 76.4114 133.944 75.8855 133.912 75.2706C133.879 74.6556 133.353 74.1944 132.738 74.2349Z" fill="#263238"/>
<g opacity="0.2">
<path opacity="0.2" d="M109.996 36.0524C111.242 34.7416 112.57 33.7949 113.768 33.18C114.965 32.557 116.009 32.2252 116.746 32.1039C117.482 31.9744 117.911 32.023 117.96 32.1767C118.065 32.5246 116.608 33.1557 114.682 34.6283C112.764 36.0685 110.401 38.5364 109.098 41.878C107.803 45.2277 107.884 48.6422 108.329 50.9968C108.758 53.3836 109.413 54.8239 109.09 55.01C108.952 55.0909 108.604 54.8401 108.143 54.2494C107.681 53.6588 107.131 52.7121 106.67 51.4499C106.2 50.1876 105.86 48.5856 105.82 46.7813C105.779 44.9769 106.079 42.9703 106.832 41.0042" fill="white"/>
</g>
<g opacity="0.2">
<path opacity="0.2" d="M122.751 32.7191C121.505 32.792 120.38 32.5169 120.21 31.8696C120.137 31.5459 120.339 31.1818 120.776 30.8824C121.205 30.5831 121.861 30.3484 122.613 30.308C123.358 30.2675 124.038 30.4132 124.499 30.664C124.969 30.9148 125.211 31.2466 125.179 31.5783" fill="white"/>
</g>
<path d="M129.687 81.1204C129.671 81.1609 129.29 81.0153 128.651 80.8696C128.012 80.7321 127.105 80.6269 126.118 80.7159C125.122 80.813 124.256 81.08 123.658 81.3389C123.059 81.5978 122.702 81.8082 122.686 81.7758C122.67 81.7516 122.994 81.4845 123.593 81.1852C124.192 80.8858 125.082 80.5783 126.102 80.4812C127.121 80.3842 128.06 80.5217 128.7 80.7078C129.339 80.8939 129.703 81.1043 129.687 81.1204Z" fill="#455A64"/>
<path d="M131.808 76.5731C131.816 76.6378 129.137 76.8644 125.835 77.0828C122.533 77.2932 119.846 77.4146 119.846 77.3498C119.838 77.2851 122.516 77.0586 125.818 76.8401C129.121 76.6297 131.808 76.5084 131.808 76.5731Z" fill="#455A64"/>
<path d="M130.998 78.3939C130.998 78.4263 130.448 78.5234 129.549 78.6366C128.651 78.7499 127.405 78.8875 126.021 78.9926C124.637 79.0978 123.39 79.1626 122.484 79.1949C121.578 79.2192 121.019 79.2111 121.011 79.1787C121.011 79.1464 121.569 79.0897 122.468 79.0169C123.447 78.9441 124.653 78.847 125.996 78.7499C127.34 78.6447 128.546 78.5395 129.525 78.4667C130.432 78.3939 130.99 78.3615 130.998 78.3939Z" fill="#455A64"/>
<path d="M24.2961 177.487L27.5172 182.641C27.5172 182.641 41.2434 170.011 54.8645 173.579C54.8564 173.579 42.6193 163.206 24.2961 177.487Z" fill="#EC6F2D"/>
<path d="M54.8564 173.578C54.8564 173.578 64.9325 162.639 79.7109 165.131L83.7414 165.738L82.4545 163.408C82.4464 163.416 56.7502 154.621 54.8564 173.578Z" fill="#EC6F2D"/>
<path d="M33.5872 136.699C33.5872 136.699 13.4025 133.227 0.169983 140.388L21.1883 179.954C21.1883 179.954 38.3946 163.375 54.8564 173.586L33.5872 136.699Z" fill="#F5F5F5"/>
<path d="M33.5872 136.699C33.5872 136.699 33.6277 136.747 33.6924 136.86C33.7653 136.982 33.8705 137.152 33.9919 137.362C34.267 137.823 34.6555 138.479 35.1573 139.328C36.1771 141.076 37.6581 143.608 39.5358 146.821C43.2992 153.302 48.6407 162.518 55.0102 173.497C55.0587 173.586 55.0344 173.691 54.9454 173.74C54.8888 173.772 54.8159 173.772 54.7593 173.74C52.477 172.34 49.8547 171.272 47.0221 170.771C45.6057 170.536 44.1409 170.439 42.6598 170.471C41.1787 170.528 39.6814 170.722 38.1923 171.029C32.2275 172.348 26.4408 175.585 21.4958 179.938L21.3258 180.1C21.2449 180.181 21.1154 180.172 21.0426 180.092C21.0264 180.075 21.0183 180.059 21.0102 180.043C13.2002 165.317 5.96477 151.667 0.0242891 140.461C-0.0161774 140.38 0.00810251 140.283 0.0890355 140.243H0.0971288C4.7265 137.848 9.42061 136.812 13.5482 136.262C17.692 135.728 21.3339 135.711 24.3123 135.792C27.2906 135.889 29.6134 136.132 31.1916 136.326C31.9766 136.424 32.5836 136.513 32.9883 136.577C33.1825 136.61 33.3282 136.642 33.4496 136.658C33.5386 136.682 33.5872 136.691 33.5872 136.699C33.5872 136.699 33.5305 136.699 33.4253 136.682C33.312 136.666 33.1582 136.65 32.964 136.626C32.5593 136.577 31.9523 136.496 31.1673 136.423C29.5891 136.262 27.2663 136.051 24.2961 135.978C21.3258 135.922 17.692 135.962 13.5725 136.521C9.46917 137.095 4.80743 138.147 0.242808 140.526L0.307555 140.299C6.26422 151.497 13.5239 165.131 21.3582 179.849L21.0426 179.808L21.2206 179.638C23.7134 177.405 26.4327 175.536 29.2654 173.991C32.1061 172.462 35.0764 171.288 38.1033 170.641C39.6167 170.325 41.1382 170.139 42.6436 170.075C44.1489 170.05 45.6381 170.147 47.0787 170.39C49.9599 170.908 52.6307 172 54.9373 173.424L54.6864 173.667C48.3817 162.671 43.0968 153.455 39.382 146.966C37.5367 143.73 36.0799 141.173 35.0845 139.409C34.5989 138.543 34.2185 137.872 33.9514 137.403C33.83 137.184 33.7329 137.014 33.6681 136.885C33.6196 136.763 33.5872 136.699 33.5872 136.699Z" fill="#263238"/>
<path d="M65.3129 128.576C65.3129 128.576 50.0489 118.85 33.8461 136.691L55.1153 173.579C55.1153 173.579 59.4533 158.61 84.8501 163.813L65.3129 128.576Z" fill="#F5F5F5"/>
<path d="M65.3129 128.576C65.3129 128.576 65.3534 128.624 65.4181 128.729C65.4909 128.851 65.58 129.004 65.7014 129.207C65.9523 129.644 66.3084 130.275 66.7697 131.084C67.7085 132.751 69.0682 135.17 70.7921 138.236C74.2398 144.426 79.1524 153.221 85.0039 163.732C85.0524 163.821 85.0201 163.926 84.9391 163.974C84.9068 163.991 84.8663 163.999 84.8258 163.991H84.8177C83.5795 163.788 82.3169 163.578 81.0382 163.368C80.3988 163.238 79.7432 163.206 79.0877 163.149C78.4321 163.101 77.7685 163.044 77.0967 162.987C76.425 162.906 75.7532 162.923 75.0734 162.939C74.3936 162.947 73.7056 162.955 73.0177 162.963C72.3298 162.979 71.6418 163.101 70.9458 163.165C70.2498 163.254 69.5457 163.287 68.8578 163.481C68.1698 163.635 67.4738 163.796 66.7697 163.95C66.0898 164.185 65.41 164.428 64.7302 164.662C64.0422 164.897 63.4191 165.277 62.7473 165.577C62.4074 165.722 62.0998 165.916 61.7923 166.119L60.8616 166.717C60.2465 167.13 59.6961 167.632 59.1215 168.101C58.6116 168.643 58.037 169.129 57.5919 169.735C56.6369 170.884 55.8195 172.211 55.3258 173.619V173.627C55.2853 173.732 55.172 173.789 55.0668 173.749C55.0182 173.732 54.9858 173.7 54.9616 173.66C54.6945 173.19 54.395 172.681 54.1037 172.171C46.585 159.104 39.5762 146.934 33.7167 136.756C33.6762 136.691 33.6924 136.61 33.7409 136.554C37.3344 132.629 41.3082 129.644 45.2658 127.896C49.2153 126.108 53.0596 125.663 56.1351 125.857C59.2267 126.051 61.5657 126.804 63.0872 127.41C63.848 127.718 64.4145 128.009 64.7868 128.212C64.9649 128.317 65.0944 128.39 65.1996 128.454C65.2724 128.543 65.3129 128.576 65.3129 128.576C65.3129 128.576 65.2562 128.551 65.1672 128.503C65.062 128.446 64.9163 128.373 64.7383 128.284C64.3579 128.098 63.7914 127.823 63.0225 127.532C61.4929 126.949 59.162 126.237 56.0946 126.075C53.0515 125.906 49.2477 126.375 45.3467 128.171C41.4458 129.919 37.5205 132.904 33.9676 136.804L33.9918 136.61C39.8595 146.773 46.8925 158.942 54.4274 171.993C54.7188 172.503 55.0101 173.012 55.2853 173.482L54.9211 173.522C55.4472 172.009 56.2808 170.682 57.2601 169.493C57.7214 168.87 58.3041 168.368 58.8302 167.818C59.421 167.34 59.9875 166.823 60.6188 166.41L61.5738 165.803C61.8894 165.593 62.2051 165.399 62.545 165.245C63.2248 164.937 63.8642 164.557 64.5683 164.314C65.2643 164.072 65.9604 163.829 66.6483 163.594C67.3605 163.432 68.0646 163.279 68.7687 163.117C69.4648 162.923 70.1851 162.89 70.8811 162.801C71.5852 162.737 72.2812 162.615 72.9853 162.599C73.6814 162.591 74.3774 162.583 75.0653 162.575C75.7532 162.559 76.4412 162.55 77.1129 162.631C77.7847 162.688 78.4564 162.745 79.1201 162.793C79.7837 162.85 80.4474 162.882 81.0867 163.02C82.3736 163.238 83.6442 163.449 84.8906 163.659L84.6963 163.918C78.9015 153.399 74.0456 144.588 70.6302 138.39C68.9387 135.299 67.6114 132.864 66.6888 131.181C66.2436 130.356 65.9037 129.716 65.6609 129.271C65.5476 129.061 65.4667 128.899 65.4019 128.778C65.3372 128.64 65.3129 128.584 65.3129 128.576Z" fill="#263238"/>
<path d="M5.85175 121.366L28.6101 165.18C28.6101 165.18 47.1114 164.371 54.9376 173.384L33.8465 136.699C33.8465 136.699 21.4799 121.366 5.85175 121.366Z" fill="#F5F5F5"/>
<path d="M5.85145 121.366C5.85145 121.366 6.0376 121.366 6.42607 121.382C6.83883 121.399 7.42155 121.423 8.18232 121.455C8.37656 121.463 8.58698 121.471 8.79741 121.488C9.00784 121.52 9.22635 121.56 9.46106 121.601C9.93047 121.682 10.4323 121.763 10.9826 121.852C11.541 121.916 12.1076 122.103 12.7227 122.264C13.3297 122.45 14.0095 122.572 14.6731 122.839C20.1118 124.651 27.412 129.037 33.9676 136.586L33.9757 136.602V136.61C39.9809 147.031 47.2487 159.654 55.0992 173.279C55.1558 173.376 55.1234 173.498 55.0263 173.554C54.9454 173.603 54.8483 173.587 54.7835 173.522L54.7754 173.514C54.4922 173.231 54.1846 172.931 53.8852 172.624C52.1937 170.981 50.1865 169.687 48.058 168.772C45.9375 167.834 43.7524 167.114 41.551 166.636C37.1482 165.649 32.7617 165.277 28.6098 165.358H28.6017C28.5289 165.358 28.4641 165.317 28.4317 165.253C21.7952 152.388 16.1299 141.4 12.1076 133.608C10.1247 129.749 8.55461 126.682 7.46202 124.562C6.93595 123.527 6.52319 122.726 6.23993 122.167C6.11044 121.908 6.00522 121.706 5.93238 121.552C5.87573 121.431 5.84336 121.366 5.85145 121.366C5.85954 121.366 5.90001 121.439 5.97285 121.585C6.05378 121.738 6.16709 121.949 6.30468 122.216C6.60413 122.782 7.03307 123.591 7.58342 124.635C8.70029 126.755 10.3109 129.821 12.3423 133.689C16.3889 141.424 22.0947 152.331 28.7798 165.099L28.6017 165.002C32.794 164.913 37.1968 165.277 41.64 166.272C43.8657 166.75 46.0751 167.478 48.228 168.424C50.3889 169.355 52.4365 170.666 54.1684 172.349C54.4841 172.664 54.7916 172.972 55.083 173.263L54.7592 173.498C46.933 159.856 39.6814 147.226 33.6924 136.788L33.7086 136.812C30.5036 133.05 27.0073 130.097 23.7457 127.799C20.4518 125.533 17.3116 123.955 14.6084 123.041C13.9447 122.766 13.2811 122.637 12.6741 122.45C12.059 122.281 11.4925 122.086 10.9421 122.014C10.3999 121.916 9.8981 121.827 9.42869 121.738C9.20208 121.698 8.97546 121.657 8.76504 121.617C8.55461 121.593 8.36037 121.585 8.17423 121.568C6.79837 121.439 6.159 121.39 5.85145 121.366Z" fill="#263238"/>
<path d="M76.9025 245.63L77.3881 246.439C77.9385 247.354 78.7316 248.082 79.6866 248.559L80.5364 248.98L79.7271 249.466C78.8125 250.016 78.0841 250.809 77.6066 251.763L77.1858 252.613L76.7002 251.804C76.1498 250.89 75.3567 250.161 74.4017 249.684L73.5519 249.263L74.3612 248.778C75.2758 248.228 76.0042 247.435 76.4817 246.48L76.9025 245.63Z" fill="#EC6F2D"/>
<path d="M32.0252 78.7417L32.5108 79.5508C33.0611 80.4651 33.8543 81.1933 34.8093 81.6707L35.6591 82.0914L34.8497 82.5769C33.9352 83.1271 33.2068 83.92 32.7293 84.8748L32.3084 85.7244L31.8229 84.9152C31.2725 84.0009 30.4794 83.2727 29.5244 82.7954L28.6746 82.3746L29.4839 81.8892C30.3984 81.339 31.1268 80.546 31.6043 79.5913L32.0252 78.7417Z" fill="#EC6F2D"/>
<path d="M239.691 107.53L240.177 108.339C240.727 109.254 241.52 109.982 242.475 110.459L243.325 110.88L242.516 111.365C241.601 111.916 240.873 112.709 240.395 113.663L239.974 114.513L239.489 113.704C238.938 112.79 238.145 112.061 237.19 111.584L236.34 111.163L237.15 110.678C238.064 110.128 238.793 109.335 239.27 108.38L239.691 107.53Z" fill="#EC6F2D"/>
<path d="M215.168 256.116L215.654 256.925C216.204 257.84 216.998 258.568 217.953 259.045L218.802 259.466L217.993 259.951C217.078 260.502 216.35 261.295 215.873 262.249L215.452 263.099L214.966 262.29C214.416 261.375 213.623 260.647 212.668 260.17L211.818 259.749L212.627 259.264C213.542 258.713 214.27 257.921 214.748 256.966L215.168 256.116Z" fill="#EC6F2D"/>
<path d="M219.838 287.34L220.073 287.437C220.332 287.542 220.623 287.574 220.898 287.518L221.149 287.469L221.052 287.704C220.947 287.963 220.915 288.254 220.971 288.529L221.02 288.78L220.785 288.683C220.526 288.578 220.235 288.545 219.96 288.602L219.709 288.651L219.806 288.416C219.911 288.157 219.943 287.866 219.887 287.591L219.838 287.34Z" fill="#EC6F2D"/>
<path d="M233.953 76.209L234.188 76.3061C234.447 76.4113 234.738 76.4436 235.013 76.387L235.264 76.3384L235.167 76.5731C235.062 76.832 235.029 77.1233 235.086 77.3984L235.135 77.6492L234.9 77.5521C234.641 77.4469 234.35 77.4146 234.074 77.4712L233.823 77.5198L233.921 77.2851C234.026 77.0262 234.058 76.7349 234.002 76.4598L233.953 76.209Z" fill="#EC6F2D"/>
<path d="M41.1544 56.936L41.3891 57.0331C41.6481 57.1383 41.9394 57.1707 42.2146 57.114L42.4655 57.0655L42.3684 57.3001C42.2632 57.5591 42.2308 57.8503 42.2875 58.1254L42.336 58.3763L42.1013 58.2792C41.8423 58.174 41.551 58.1416 41.2758 58.1983L41.0249 58.2468L41.122 58.0122C41.2272 57.7532 41.2596 57.462 41.203 57.1869L41.1544 56.936Z" fill="#EC6F2D"/>
<path d="M64.9487 221.324L65.1834 221.421C65.4424 221.526 65.7338 221.559 66.0089 221.502L66.2598 221.454L66.1627 221.688C66.0575 221.947 66.0251 222.238 66.0818 222.514L66.1303 222.764L65.8956 222.667C65.6366 222.562 65.3453 222.53 65.0701 222.586L64.8192 222.635L64.9163 222.4C65.0215 222.141 65.0539 221.85 64.9973 221.575L64.9487 221.324Z" fill="#EC6F2D"/>
<path d="M90.7421 284.864C90.7421 284.864 90.6692 284.945 90.5235 285.099C90.3617 285.261 90.1351 285.479 89.8518 285.77C89.2448 286.361 88.3626 287.219 87.2377 288.319C84.9392 290.536 81.6371 293.724 77.5338 297.673L77.5743 297.576C78.0356 307.73 78.6588 321.525 79.3629 336.874L79.3791 337.222L79.0877 337.028C77.9789 336.284 76.7811 335.491 75.5833 334.69C67.5952 329.341 60.028 324.276 53.3672 319.826L53.3187 319.794L53.3025 319.745C49.9923 309.85 47.192 301.508 45.2173 295.617C44.2461 292.688 43.4853 290.374 42.9511 288.772C42.7002 287.987 42.4979 287.381 42.3603 286.952C42.2956 286.758 42.2551 286.604 42.2146 286.482C42.1823 286.377 42.1661 286.321 42.1742 286.321C42.1823 286.321 42.1985 286.369 42.2389 286.474C42.2794 286.588 42.336 286.741 42.4089 286.936C42.5546 287.356 42.7731 287.963 43.0402 288.74C43.5905 290.334 44.3837 292.64 45.3872 295.561C47.3863 301.443 50.227 309.769 53.5938 319.648L53.5291 319.567C60.1899 324.017 67.7652 329.066 75.7614 334.406C76.9592 335.208 78.1489 336 79.2658 336.745L78.9906 336.899C78.335 321.55 77.7442 307.754 77.3072 297.6V297.543L77.3477 297.503C81.4752 293.587 84.8097 290.423 87.1244 288.23C88.2736 287.154 89.1639 286.313 89.7871 285.73C90.0865 285.455 90.3131 285.245 90.4831 285.091C90.6611 284.937 90.7421 284.864 90.7421 284.864Z" fill="#EC6F2D"/>
<path d="M80.4068 332.254L80.334 334.544L82.1793 335.904L79.9779 336.543L79.2576 338.719L77.9708 336.818L75.6804 336.81L77.0805 334.997L76.3845 332.813L78.5454 333.589L80.4068 332.254Z" fill="#EC6F2D"/>
<path d="M53.6505 316.703L53.6909 318.184L54.9373 318.993L53.5452 319.495L53.1649 320.927L52.2584 319.753L50.7773 319.834L51.611 318.613L51.0768 317.229L52.5012 317.642L53.6505 316.703Z" fill="#EC6F2D"/>
<path d="M42.1256 283.594L43.2425 285.026L45.0635 284.921L44.0437 286.426L44.7073 288.125L42.9511 287.616L41.5429 288.773L41.4862 286.952L39.9485 285.973L41.6643 285.35L42.1256 283.594Z" fill="#EC6F2D"/>
<path d="M89.6251 282.154L90.742 283.594L92.563 283.481L91.5432 284.994L92.2069 286.685L90.4587 286.183L89.0505 287.34L88.9857 285.52L87.4561 284.533L89.1638 283.918L89.6251 282.154Z" fill="#EC6F2D"/>
<path d="M77.1534 296.03L77.8737 296.945L79.031 296.872L78.3755 297.835L78.8044 298.919L77.6875 298.595L76.7892 299.331L76.7487 298.174L75.7694 297.543L76.862 297.155L77.1534 296.03Z" fill="#EC6F2D"/>
<path d="M34.3237 234.828C43.2365 234.828 50.4617 227.605 50.4617 218.694C50.4617 209.784 43.2365 202.561 34.3237 202.561C25.4109 202.561 18.1857 209.784 18.1857 218.694C18.1857 227.605 25.4109 234.828 34.3237 234.828Z" fill="#EC6F2D"/>
<g opacity="0.3">
<g opacity="0.3">
<g opacity="0.3">
<g opacity="0.3">
<path opacity="0.3" d="M32.2276 223.735C32.2276 225.191 31.0459 226.365 29.5972 226.365C28.1404 226.365 26.9669 225.183 26.9669 223.735C26.9669 222.279 28.1485 221.105 29.5972 221.105C31.0459 221.105 32.2276 222.279 32.2276 223.735Z" fill="white"/>
</g>
</g>
</g>
</g>
<g opacity="0.3">
<g opacity="0.3">
<g opacity="0.3">
<g opacity="0.3">
<path opacity="0.3" d="M28.4885 216.138C28.4885 216.987 27.8005 217.667 26.9588 217.667C26.109 217.667 25.4292 216.979 25.4292 216.138C25.4292 215.288 26.1171 214.608 26.9588 214.608C27.8086 214.608 28.4885 215.296 28.4885 216.138Z" fill="white"/>
</g>
</g>
</g>
</g>
<path d="M18.6632 222.619C18.736 222.902 4.84792 236.22 8.42516 239.06C12.0024 241.9 27.064 234.618 39.9 224.253C52.736 213.888 64.4632 201.298 61.2501 197.965C58.0371 194.631 41.9962 204.494 41.9962 204.494L43.9143 205.716C43.9143 205.716 53.61 199.494 56.6855 201.913C59.7529 204.325 51.004 213.759 38.6617 222.764C26.3194 231.77 14.3899 238.097 12.5366 235.629C10.6832 233.161 19.4239 224.933 19.4239 224.933L18.6632 222.619Z" fill="#EC6F2D"/>
<g opacity="0.3">
<g opacity="0.3">
<g opacity="0.3">
<g opacity="0.3">
<path opacity="0.3" d="M18.6632 222.619C18.736 222.902 4.84792 236.22 8.42516 239.06C12.0024 241.9 27.064 234.618 39.9 224.253C52.736 213.888 64.4632 201.298 61.2501 197.965C58.0371 194.631 41.9962 204.494 41.9962 204.494L43.9143 205.716C43.9143 205.716 53.61 199.494 56.6855 201.913C59.7529 204.325 51.004 213.759 38.6617 222.764C26.3194 231.77 14.3899 238.097 12.5366 235.629C10.6832 233.161 19.4239 224.933 19.4239 224.933L18.6632 222.619Z" fill="black"/>
</g>
</g>
</g>
</g>
<g opacity="0.3">
<g opacity="0.3">
<g opacity="0.3">
<g opacity="0.3">
<g opacity="0.3">
<path opacity="0.3" d="M25.4292 207.326C25.5587 207.48 24.4661 208.41 23.2278 210.271C21.9895 212.108 20.6946 215.013 20.6218 218.379C20.557 221.753 21.7386 224.706 22.9041 226.591C24.0695 228.501 25.1216 229.472 24.9841 229.626C24.9031 229.739 23.6082 228.986 22.1676 227.085C21.4554 226.138 20.7432 224.9 20.209 223.411C19.6749 221.931 19.343 220.191 19.3754 218.355C19.424 216.518 19.8205 214.794 20.4113 213.338C21.0022 211.873 21.7629 210.66 22.5156 209.745C24.021 207.909 25.3483 207.213 25.4292 207.326Z" fill="white"/>
</g>
</g>
</g>
</g>
</g>
<path d="M221.4 77.1511C226.709 72.065 226.888 63.6394 221.801 58.3321C216.713 53.0247 208.285 52.8454 202.977 57.9315C197.668 63.0175 197.488 71.4431 202.576 76.7504C207.663 82.0578 216.091 82.2371 221.4 77.1511Z" fill="#EC6F2D"/>
<g opacity="0.4">
<g opacity="0.4">
<g opacity="0.4">
<g opacity="0.4">
<path opacity="0.4" d="M216.536 62.4465C216.569 61.249 217.556 60.3024 218.762 60.3266C219.96 60.359 220.907 61.3461 220.882 62.5517C220.85 63.7492 219.863 64.6959 218.657 64.6716C217.451 64.6392 216.504 63.644 216.536 62.4465Z" fill="black"/>
</g>
</g>
</g>
</g>
<g opacity="0.4">
<g opacity="0.4">
<g opacity="0.4">
<g opacity="0.4">
<path opacity="0.4" d="M220.874 67.5193C220.89 66.8234 221.473 66.2732 222.169 66.2894C222.865 66.3056 223.415 66.8882 223.399 67.584C223.383 68.2798 222.8 68.83 222.104 68.8138C221.408 68.7896 220.858 68.2151 220.874 67.5193Z" fill="black"/>
</g>
</g>
</g>
</g>
<g opacity="0.4">
<g opacity="0.4">
<g opacity="0.4">
<g opacity="0.4">
<path opacity="0.4" d="M219.183 71.3953C219.442 71.4033 219.644 71.6137 219.636 71.8726C219.628 72.1315 219.417 72.3338 219.158 72.3257C218.899 72.3176 218.697 72.1073 218.705 71.8484C218.713 71.5894 218.924 71.3872 219.183 71.3953Z" fill="black"/>
</g>
</g>
</g>
</g>
</g>
<defs>
<clipPath id="clip0">
<rect y="0.313965" width="288" height="355" fill="white"/>
</clipPath>
</defs>
</svg>
